<svg width="40" height="42" viewBox="0 0 40 42" fill="none" xmlns="http://www.w3.org/2000/svg">
  <path d="M9.72326 1.7998C9.72326 1.7998 7.56996 4.49047 9.2822 7.2158C10.9944 9.93921 10.4571 12.0001 10.0642 12.6299" stroke="#212121" stroke-width="2" stroke-linecap="round" stroke-linejoin="round"/>
  <path d="M15.2506 1.7998C15.2506 1.7998 13.0973 4.49047 14.8095 7.2158C16.5218 9.93921 15.9844 12.0001 15.5915 12.6299" stroke="#212121" stroke-width="2" stroke-linecap="round" stroke-linejoin="round"/>
  <path d="M20.7804 1.7998C20.7804 1.7998 18.6271 4.49047 20.3393 7.2158C22.0496 9.93921 21.5142 12.0001 21.1194 12.6299" stroke="#212121" stroke-width="2" stroke-linecap="round" stroke-linejoin="round"/>
  <path fill-rule="evenodd" clip-rule="evenodd" d="M31.1098 21.7965V17.2896H1.56836V21.7965C1.56836 24.2695 1.74363 26.4112 2.04409 28.2679C3.16889 35.1997 9.31486 40.1997 16.3391 40.1997C23.3614 40.1997 29.5074 35.1997 30.6322 28.2679C30.9326 26.4112 31.1098 24.2695 31.1098 21.7965Z" stroke="#212121" stroke-width="2" stroke-linecap="round" stroke-linejoin="round"/>
  <path d="M29.4922 32.5708H32.6143C33.4386 32.5708 34.1532 32.5111 34.7734 32.4109C37.0865 32.0373 38.7545 29.9841 38.7545 27.6401C38.7545 25.2981 37.0865 23.2469 34.7734 22.8713C34.1532 22.7711 33.4386 22.7114 32.6143 22.7114H31.1101" stroke="#212121" stroke-width="2" stroke-linecap="round" stroke-linejoin="round"/>
</svg>
