<svg width="64" height="48" viewBox="0 0 64 48" fill="none" xmlns="http://www.w3.org/2000/svg">
  <path d="M31.9996 37.0304C37.988 37.0304 42.8426 32.1759 42.8426 26.1875C42.8426 20.199 37.988 15.3445 31.9996 15.3445C26.0112 15.3445 21.1566 20.199 21.1566 26.1875C21.1566 32.1759 26.0112 37.0304 31.9996 37.0304Z" stroke="#33319F" stroke-width="2.79545" stroke-miterlimit="10" stroke-linecap="round" stroke-linejoin="round"/>
  <path d="M51.5174 45.7042H12.4827C11.3324 45.7042 10.2292 45.2472 9.41584 44.4338C8.60246 43.6205 8.14551 42.5173 8.14551 41.367V13.1752C8.14551 12.025 8.60246 10.9218 9.41584 10.1084C10.2292 9.29501 11.3324 8.83806 12.4827 8.83806H21.1571L25.4943 2.33228H38.5058L42.843 8.83806H51.5174C52.6677 8.83806 53.7709 9.29501 54.5842 10.1084C55.3976 10.9218 55.8546 12.025 55.8546 13.1752V41.367C55.8546 42.5173 55.3976 43.6205 54.5842 44.4338C53.7709 45.2472 52.6677 45.7042 51.5174 45.7042Z" stroke="#33319F" stroke-width="2.79545" stroke-miterlimit="10" stroke-linecap="round" stroke-linejoin="round"/>
  <path d="M15.4235 15.3441C15.4235 15.7699 15.0783 16.115 14.6526 16.115C14.2269 16.115 13.8817 15.7699 13.8817 15.3441C13.8817 14.9184 14.2269 14.5733 14.6526 14.5733C15.0783 14.5733 15.4235 14.9184 15.4235 15.3441Z" fill="#33319F" stroke="#33319F" stroke-width="2.79545"/>
</svg>
