<svg width="48" height="48" viewBox="0 0 48 48" fill="none" xmlns="http://www.w3.org/2000/svg">
  <path fill-rule="evenodd" clip-rule="evenodd" d="M8.57686 41.0168L4.80078 34.7271H43.2008L39.4291 41.0168H8.57686Z" stroke="#212121" stroke-width="2" stroke-linecap="round" stroke-linejoin="round"/>
  <path fill-rule="evenodd" clip-rule="evenodd" d="M26.6074 16.8874C26.1471 17.6922 25.3116 18.2804 24.2994 18.3993C23.0451 18.5458 21.8758 17.93 21.2846 16.9235C21.0861 16.5879 20.9531 16.21 20.9029 15.8022C20.7022 14.1735 21.8954 12.6913 23.5686 12.496C25.244 12.2985 26.7644 13.4622 26.9673 15.0909C27.0458 15.7364 26.9084 16.3586 26.6074 16.8874Z" stroke="#212121" stroke-width="2" stroke-linecap="round" stroke-linejoin="round"/>
  <path d="M9.36523 33.7086L14.9476 21.4369C15.7656 19.6362 18.0692 18.4194 20.6651 18.4194H27.2466C29.8316 18.4194 32.1286 19.6256 32.9554 21.4157L38.6402 33.7086" stroke="#212121" stroke-width="2" stroke-linecap="round" stroke-linejoin="round"/>
  <path d="M35.5682 27.0655C22.9115 20.5272 23.9367 32.869 13.6992 26.1163" stroke="#212121" stroke-width="2" stroke-linecap="round" stroke-linejoin="round"/>
  <path d="M28.979 7.10352C28.979 7.10352 23.9355 7.10352 23.9355 12.2976" stroke="#212121" stroke-width="2" stroke-linecap="round" stroke-linejoin="round"/>
</svg>
