<svg width="106" height="96" viewBox="0 0 106 96" fill="none" xmlns="http://www.w3.org/2000/svg">
  <g clip-path="url(#clip0)">
    <path d="M90.5222 59.9753C88.4759 71.349 84.9551 81.8703 77.8452 88.4739C70.7354 95.0776 60.0425 97.7351 51.2026 95.2238C42.3455 92.7232 35.3584 85.0432 25.9896 78.8596C16.6209 72.6761 4.92698 68.0037 1.29297 60.1645C-2.32989 52.3433 2.1636 41.3701 8.53973 33.4314C14.9159 25.4927 23.1977 20.5494 32.2861 16.4491C41.3745 12.3487 51.2585 9.0733 61.6211 10.4947C71.9838 11.9161 82.8362 18.0522 87.9796 27.2191C93.123 36.386 92.5684 48.6016 90.5222 59.9753Z" fill="#FCEBE7"/>
    <path d="M82.6574 16.4665C78.2301 16.006 73.643 18.4374 73.3841 22.9691C73.2007 26.2932 75.08 27.3269 77.0559 27.6614C77.527 27.7404 78.0001 27.6467 78.3478 27.2787C78.3421 27.3349 78.3367 27.3911 78.3315 27.4473C78.3018 27.7225 78.2715 27.9864 78.2424 28.2394C78.2064 28.5523 78.1723 28.8483 78.1439 29.1281C77.898 31.4368 77.9985 32.6247 80.6757 32.9731C80.7602 32.9842 80.8473 32.9944 80.9371 33.0037C81.0269 33.0131 81.1142 33.021 81.1992 33.0275C83.911 33.2392 84.2501 32.0804 84.4885 29.7371C84.5178 29.4621 84.5452 29.1707 84.5741 28.8632L84.5742 28.8616C84.5971 28.6185 84.6209 28.365 84.6473 28.102C84.6528 28.0537 84.6582 28.0055 84.6633 27.9572C84.9294 28.3739 85.3675 28.5555 85.8371 28.5749C87.8371 28.654 89.8877 28.0411 90.3924 24.7504C91.099 20.2532 87.1011 16.9288 82.6574 16.4665Z" fill="#F8CDC4"/>
    <path d="M77.8749 27.4542C82.0802 26.1682 85.8573 26.3203 85.1105 22.2796C84.2496 17.5836 78.973 15.9816 74.7605 17.2697C70.5481 18.5579 67.0867 22.8319 68.9923 27.2085C70.6354 30.983 73.6768 28.738 77.8749 27.4542Z" fill="#665201"/>
    <path d="M81.2538 27.0483C80.1236 23.3522 77.8146 19.7343 75.718 20.3754C73.6213 21.0166 73.7332 25.3064 74.8634 29.0024C75.9937 32.6985 76.1456 34.6232 79.7317 33.5266C83.3178 32.43 82.384 30.7443 81.2538 27.0483Z" fill="#E2C283"/>
    <path d="M74.6141 16.7916C70.1339 18.1617 66.6852 22.4004 68.2936 26.8993C69.4797 30.1966 71.7253 30.4274 73.7778 29.941C74.5574 29.7548 75.1619 29.1413 74.9222 27.9127C74.9075 27.7789 74.8627 27.6502 74.7911 27.5362C74.7196 27.4222 74.6231 27.326 74.5089 27.2547C74.3947 27.1834 74.2659 27.1389 74.1321 27.1246C73.9983 27.1103 73.8629 27.1265 73.7363 27.1721C73.2581 27.3183 73.0007 27.716 73.165 28.45C73.165 28.45 73.1687 28.462 73.1701 28.4667C73.424 29.4165 71.104 29.4044 71.0638 27.5632C71.0473 26.7055 71.8075 25.5241 72.7772 25.0445C73.0447 24.9105 73.5773 24.7371 73.7411 25.1105C74.002 25.7657 74.2141 26.4392 74.3756 27.1256C75.0389 26.5971 75.5691 25.9206 75.9237 25.1502C76.2784 24.3798 76.4475 23.5371 76.4177 22.6895C76.8674 23.4084 77.479 24.0121 78.2038 24.4523C78.9285 24.8926 79.7462 25.1571 80.5915 25.2248C80.3408 24.5657 80.1391 23.889 79.9881 23.2003C79.9151 22.7991 80.4535 22.6449 80.7526 22.6057C81.8246 22.4609 83.1156 23.0151 83.5816 23.7353C84.5781 25.2841 82.6641 26.5909 82.3409 25.6623C82.3405 25.6565 82.3387 25.6507 82.3358 25.6456C82.0615 24.9452 81.6352 24.7566 81.1499 24.905C81.0192 24.9377 80.8976 24.9997 80.7944 25.0863C80.6912 25.1729 80.609 25.2819 80.5542 25.405C80.4994 25.5281 80.4733 25.662 80.4779 25.7967C80.4826 25.9314 80.5178 26.0632 80.581 26.1822C81.0685 27.3403 81.9137 27.5053 82.6641 27.2236C84.6352 26.4796 86.3713 25.0442 85.5104 21.6475C84.3502 16.9985 79.111 15.4165 74.6141 16.7916Z" fill="#E2C283"/>
    <g style="mix-blend-mode:multiply" opacity="0.3">
      <path d="M76.7769 23.1888L76.4159 23.2992C74.283 23.9671 72.8986 24.6807 72.0833 25.5365C72.2926 25.3368 72.5303 25.169 72.7885 25.0385C73.056 24.9044 73.5885 24.7311 73.7524 25.1045C74.0082 25.7402 74.2153 26.3944 74.3717 27.0615C74.5188 27.7982 74.7073 28.5261 74.9365 29.2416C76.0185 32.7799 76.1456 34.6233 79.7317 33.5267C83.3177 32.4301 82.4088 30.8257 81.3269 27.2875C81.1158 26.5664 80.8642 25.8578 80.5733 25.165C80.3304 24.5244 80.1354 23.8666 79.9898 23.1972C79.9168 22.796 80.4552 22.6418 80.7543 22.6026C81.044 22.5656 81.3375 22.5719 81.6254 22.6212C80.4636 22.3699 78.9193 22.552 76.7769 23.1888Z" fill="#C8C4C0"/>
    </g>
    <path d="M68.9693 47.339C68.8415 47.3269 68.7075 47.3127 68.5678 47.2975C69.632 47.6996 70.4452 48.4742 71.0348 49.4823C72.5878 52.1378 71.8462 55.2269 66.6853 58.3497C66.484 58.4715 66.2808 58.5948 66.0762 58.7191C61.0336 61.7808 55.0551 65.4107 52.3547 60.789C52.1414 60.424 51.9819 60.0641 51.8715 59.7091C50.9819 59.5975 50.2152 59.2274 49.6302 58.5282C49.0428 57.8263 48.8138 57.0023 48.8625 56.1024C48.5294 55.9304 48.2001 55.7083 47.8755 55.4314C43.8097 51.9643 48.4181 46.7342 52.3128 42.314L52.3146 42.3119L52.3244 42.3009C52.4858 42.1177 52.6459 41.9359 52.8041 41.7557C56.7834 37.2244 59.9548 37.0392 62.2949 39.0363C63.1819 39.7934 63.8004 40.7289 64.0094 41.8454C64.019 41.7069 64.0287 41.5742 64.0394 41.4479C64.042 41.3992 64.1444 40.8923 64.46 41.4583C64.7375 41.9601 65.8014 43.3649 67.1557 42.2999C67.1622 42.2941 67.1687 42.2884 67.1753 42.2828C67.1881 42.2719 67.2011 42.2613 67.2143 42.251L67.4873 42.0226C69.821 40.0699 71.6937 40.3055 72.8529 40.847C73.1333 40.9833 73.3489 41.2245 73.453 41.5185C73.5572 41.8124 73.5415 42.1355 73.4095 42.418C73.2774 42.7005 73.0396 42.9197 72.7473 43.0283C72.455 43.137 72.1317 43.1263 71.8472 42.9986C71.557 42.8631 70.6761 42.4516 69.0116 43.8443L68.7277 44.0818C68.7147 44.0933 68.7014 44.1044 68.6878 44.1153L68.6744 44.1264C67.3967 45.2703 68.5888 46.562 69.0332 46.9231C69.5346 47.3336 69.0176 47.3449 68.9693 47.339Z" fill="#F8CDC4"/>
    <path d="M62.9177 39.9293C62.7924 39.8183 62.6462 39.7335 62.4876 39.6801C62.3289 39.6267 62.1612 39.6056 61.9943 39.6182C61.8274 39.6308 61.6647 39.6768 61.516 39.7534C61.3672 39.8301 61.2353 39.9358 61.1281 40.0644C59.8851 41.3849 58.5578 40.0892 58.1905 39.6102C57.7734 39.0705 57.7462 39.6141 57.751 39.6652C57.8623 41.3836 58.3261 44.1823 56.5681 46.8837C56.5681 46.8837 56.4248 47.0908 56.5165 47.172" fill="#8BA912"/>
    <path d="M62.9176 39.9292C63.043 40.0402 63.1448 40.1751 63.217 40.3261C63.2892 40.4771 63.3304 40.641 63.338 40.8082C63.3457 40.9754 63.3197 41.1425 63.2616 41.2994C63.2035 41.4564 63.1145 41.6001 62.9998 41.722C61.8391 43.1155 63.2858 44.2764 63.8056 44.5832C64.3918 44.932 63.8554 45.0248 63.8041 45.0261C62.083 45.1216 59.2506 45.0011 56.7815 47.0726C56.7815 47.0726 56.5932 47.2399 56.5015 47.1587" fill="#8BA912"/>
    <path d="M57.1851 46.4018C56.9369 46.182 56.7862 45.8726 56.7662 45.5416C56.7461 45.2107 56.8583 44.8853 57.0781 44.6371L61.4296 39.7238C63.5531 37.3262 65.5392 37.2784 66.8306 37.6606C67.1438 37.7586 67.406 37.9759 67.5603 38.2656C67.7147 38.5552 67.749 38.894 67.6558 39.2087C67.5625 39.5234 67.3493 39.7889 67.062 39.9477C66.7748 40.1065 66.4366 40.1459 66.1205 40.0575C65.7976 39.962 64.8164 39.6708 63.3013 41.3815L58.9499 46.2948C58.73 46.543 58.4206 46.6937 58.0897 46.7138C57.7587 46.7338 57.4334 46.6216 57.1851 46.4018Z" fill="#8BA912"/>
    <path d="M55.8636 47.7731C59.3021 42.4388 58.3051 39.141 55.5569 37.4285C52.8086 35.7159 49.5365 36.4049 46.1036 41.7442C42.6707 47.0835 38.1362 53.6516 43.1134 56.7504C48.0906 59.8493 52.4286 53.1072 55.8636 47.7731Z" fill="#3A6D12"/>
    <path d="M55.9837 47.8791C60.8635 43.8212 64.2575 44.4124 66.2896 46.9336C68.3218 49.4548 68.0332 52.7862 63.1499 56.8443C58.2666 60.9024 52.2925 66.1922 48.6149 61.6259C44.9373 57.0596 51.1056 51.9352 55.9837 47.8791Z" fill="#3A6D12"/>
    <path d="M50.6688 44.9283C54.9258 40.1217 58.4108 40.1389 60.8328 42.2839C63.2548 44.429 63.7023 47.8946 59.4453 52.7012C55.1884 57.5078 48.7947 62.683 45.4256 59.6992C42.0565 56.7153 46.4102 49.7367 50.6688 44.9283Z" fill="#468316"/>
    <path d="M26.9981 9.64531C26.0491 9.72844 25.122 10.0063 24.2768 10.4674C23.1143 9.6114 21.6726 9.22338 20.2375 9.38032C16.5574 9.66496 14.0191 12.5083 14.4751 19.7293C14.4937 20.0233 14.5119 20.3204 14.5303 20.6198C14.9641 27.6748 15.4773 36.0225 21.8689 35.5256C22.3644 35.4886 22.8536 35.3916 23.3258 35.237C23.6579 35.6423 24.0666 35.9783 24.5285 36.2257C24.9905 36.4731 25.4966 36.6271 26.0181 36.6788C26.5395 36.7306 27.0661 36.6791 27.5676 36.5274C28.0692 36.3756 28.536 36.1266 28.9413 35.7944C29.3467 36.0041 29.7744 36.1676 30.2163 36.282C36.4343 37.9249 38.4433 29.7465 40.132 22.8721L40.1323 22.8708L40.1373 22.8507C40.2016 22.589 40.2654 22.3292 40.329 22.072C42.0639 15.0523 40.0896 11.7972 36.5121 10.855C35.1277 10.4427 33.6389 10.5651 32.3403 11.1981C31.5992 10.5967 30.7459 10.1586 29.8361 9.9056L30.0289 7.77846C30.3583 4.14262 28.8456 2.45744 27.5191 1.68481C27.1929 1.50156 26.8078 1.45395 26.4468 1.55227C26.0858 1.65058 25.7779 1.88692 25.5897 2.21026C25.4015 2.5336 25.348 2.918 25.4407 3.28046C25.5335 3.64291 25.7651 3.95434 26.0855 4.1475C26.4175 4.34088 27.4256 4.92805 27.1906 7.52128L26.9981 9.64531Z" fill="#F8CDC4"/>
    <path d="M26.2266 11.3366C24.72 11.543 23.3457 12.3075 22.3758 13.4788C20.9109 13.0952 19.3627 13.1781 17.9471 13.716C16.5037 14.1761 15.2387 15.073 14.3269 16.283C12.8403 15.9675 11.2893 16.2221 9.98151 16.9963C6.57681 18.8687 5.37891 22.6982 8.95466 29.4235C12.5304 36.1488 16.7463 44.748 22.9095 41.3553C23.3685 41.1044 23.7955 40.7989 24.181 40.4453C24.6756 40.6896 25.2134 40.8341 25.7639 40.8706C26.3143 40.907 26.8665 40.8346 27.389 40.6576C27.9115 40.4806 28.394 40.2024 28.8089 39.8389C29.2238 39.4754 29.5631 39.0338 29.8074 38.5391C30.2872 38.5639 30.7684 38.5349 31.2417 38.4524C38.1788 37.2809 36.1491 27.917 34.7615 20.4325C33.3739 12.948 30.0662 10.6851 26.2266 11.3366Z" fill="#F8783A"/>
    <path d="M21.7027 14.4282C21.0912 14.816 20.062 15.1174 19.7008 14.1535L18.6733 11.2042C17.4089 7.575 15.226 6.61674 13.6184 6.45247C13.226 6.41855 12.836 6.54031 12.5326 6.79147C12.2292 7.04264 12.0368 7.40304 11.9968 7.79487C11.9569 8.1867 12.0727 8.57852 12.3192 8.88572C12.5657 9.19292 12.9231 9.39086 13.3142 9.43679C13.7161 9.47786 14.938 9.6018 15.8401 12.1913L16.8321 15.0386C16.839 15.0584 16.845 15.0754 16.8519 15.0952C17.2062 16.1123 16.1909 16.5264 15.4698 16.5997C15.4579 16.6016 15.4468 16.6072 15.4382 16.6157C15.4296 16.6243 15.424 16.6354 15.4222 16.6474C15.4203 16.6593 15.4223 16.6716 15.4279 16.6823C15.4335 16.6931 15.4424 16.7018 15.4533 16.7072C16.4557 17.2001 17.3547 17.88 18.1019 18.7104L18.4207 19.6255C18.5118 19.8821 18.671 20.1091 18.8812 20.2821C19.0915 20.4551 19.3449 20.5676 19.6142 20.6076C20.0842 21.3027 20.5155 22.0232 20.9062 22.7657C20.9062 22.7657 21.0389 23.0372 21.1778 22.9888C21.3166 22.9405 21.2519 22.6453 21.2519 22.6453C21.0973 21.8216 20.9879 20.99 20.9241 20.1544C21.112 19.9557 21.242 19.7095 21.3001 19.4423C21.3582 19.1752 21.3422 18.8972 21.2538 18.6385L20.935 17.7234C21.0117 16.6081 21.3004 15.5177 21.7854 14.5106C21.7963 14.4996 21.8024 14.4848 21.8024 14.4693C21.8024 14.4538 21.7962 14.439 21.7852 14.428C21.7743 14.4171 21.7594 14.411 21.7439 14.411C21.7284 14.4111 21.7136 14.4172 21.7027 14.4282Z" fill="#8BA912"/>
    <path d="M26.4328 37.8089C26.2651 37.866 26.0873 37.8868 25.9111 37.8699C25.7348 37.853 25.5642 37.7987 25.4105 37.7108L23.6053 36.8973L22.1471 38.2378C21.9385 38.4296 21.7068 38.5947 21.4573 38.7291C21.274 38.8321 21.0821 38.9191 20.8839 38.9892C17.9374 40.0157 14.515 33.5388 12.0145 28.8057L11.5978 28.02C8.11432 21.45 10.5246 20.1338 11.4276 19.6253C11.6452 19.5055 11.8719 19.4031 12.1057 19.3192C12.7345 19.0792 13.4302 19.0827 14.0566 19.3289L16.2245 20.1621L17.5698 18.2606C17.9865 17.7142 18.5653 17.3135 19.2234 17.1158C19.846 16.8701 20.5286 16.8195 21.1807 16.9708L23.3355 17.5385L24.5017 15.6423C24.8413 15.0817 25.3732 14.6637 25.9982 14.4664C26.2344 14.3864 26.4766 14.3254 26.7225 14.2839C27.743 14.1127 30.4524 13.6548 31.8054 20.9671L31.9681 21.8445C32.9529 27.1151 34.293 34.3175 31.3494 35.343C31.1506 35.4113 30.9462 35.4623 30.7386 35.4955C30.4798 35.5405 30.2168 35.5565 29.9545 35.5431L28.0528 35.4464L27.1569 37.1246C27.0907 37.2828 26.992 37.4255 26.8673 37.5434C26.7425 37.6612 26.5945 37.7517 26.4328 37.8089Z" fill="#C74607"/>
    <path opacity="0.3" d="M26.4322 37.8091C26.5996 37.7499 26.7524 37.6557 26.8805 37.5327C27.0086 37.4097 27.109 37.2609 27.175 37.096L28.0839 35.337C26.0415 35.1558 25.0309 28.3977 24.2692 24.1232C23.5075 19.8486 23.228 18.2622 23.8575 16.9595C23.2536 16.7855 19.9746 16.8572 19.2238 17.1188C18.473 17.3804 15.8734 19.3567 15.497 19.8723C16.7967 20.4933 17.5673 21.9118 19.6257 25.741C21.6841 29.5701 25.0924 35.4864 23.6047 36.8975L25.4099 37.7109C25.5636 37.7989 25.7342 37.8531 25.9105 37.87C26.0867 37.8869 26.2646 37.8662 26.4322 37.8091Z" fill="#F8783A"/>
    <path d="M14.1859 21.0502C14.5364 20.9281 14.7215 20.545 14.5994 20.1945C14.4773 19.844 14.0942 19.6588 13.7437 19.7809C13.3932 19.9031 13.208 20.2862 13.3301 20.6367C13.4523 20.9872 13.8354 21.1723 14.1859 21.0502Z" fill="#FFF5CC"/>
    <path d="M13.7803 22.7769C14.1308 22.6548 14.316 22.2717 14.1939 21.9212C14.0717 21.5707 13.6886 21.3856 13.3381 21.5077C12.9876 21.6298 12.8025 22.0129 12.9246 22.3634C13.0467 22.7139 13.4298 22.899 13.7803 22.7769Z" fill="#FFF5CC"/>
    <path d="M14.3599 24.4403C14.7103 24.3182 14.8955 23.9351 14.7734 23.5846C14.6513 23.2341 14.2681 23.049 13.9177 23.1711C13.5672 23.2932 13.382 23.6763 13.5041 24.0268C13.6262 24.3773 14.0094 24.5624 14.3599 24.4403Z" fill="#FFF5CC"/>
    <path d="M15.3944 25.8869C15.7449 25.7648 15.93 25.3817 15.8079 25.0312C15.6858 24.6807 15.3027 24.4955 14.9522 24.6177C14.6017 24.7398 14.4166 25.1229 14.5387 25.4734C14.6608 25.8239 15.0439 26.009 15.3944 25.8869Z" fill="#FFF5CC"/>
    <path d="M16.8914 26.8459C17.2419 26.7238 17.427 26.3407 17.3049 25.9902C17.1828 25.6397 16.7997 25.4546 16.4492 25.5767C16.0987 25.6988 15.9136 26.0819 16.0357 26.4324C16.1578 26.7829 16.5409 26.968 16.8914 26.8459Z" fill="#FFF5CC"/>
    <path d="M18.702 27.1465C19.0524 27.0244 19.2376 26.6413 19.1155 26.2908C18.9934 25.9403 18.6102 25.7552 18.2598 25.8773C17.9093 25.9994 17.7241 26.3825 17.8462 26.733C17.9683 27.0835 18.3515 27.2687 18.702 27.1465Z" fill="#FFF5CC"/>
    <path d="M20.5787 26.8607C20.9292 26.7386 21.1144 26.3554 20.9923 26.0049C20.8701 25.6545 20.487 25.4693 20.1365 25.5914C19.7861 25.7135 19.6009 26.0966 19.723 26.4471C19.8451 26.7976 20.2282 26.9828 20.5787 26.8607Z" fill="#FFF5CC"/>
    <path d="M25.4504 17.1257C25.8009 17.0036 25.986 16.6204 25.8639 16.2699C25.7418 15.9195 25.3587 15.7343 25.0082 15.8564C24.6577 15.9785 24.4726 16.3617 24.5947 16.7121C24.7168 17.0626 25.0999 17.2478 25.4504 17.1257Z" fill="#FFF5CC"/>
    <path d="M26.8411 18.2266C27.1916 18.1045 27.3767 17.7214 27.2546 17.3709C27.1325 17.0204 26.7494 16.8353 26.3989 16.9574C26.0484 17.0795 25.8633 17.4626 25.9854 17.8131C26.1075 18.1636 26.4906 18.3487 26.8411 18.2266Z" fill="#FFF5CC"/>
    <path d="M27.4206 19.89C27.7711 19.7679 27.9562 19.3848 27.8341 19.0343C27.712 18.6838 27.3289 18.4987 26.9784 18.6208C26.6279 18.7429 26.4428 19.126 26.5649 19.4765C26.687 19.827 27.0701 20.0121 27.4206 19.89Z" fill="#FFF5CC"/>
    <path d="M27.5089 21.6662C27.8594 21.5441 28.0445 21.161 27.9224 20.8105C27.8003 20.46 27.4172 20.2749 27.0667 20.397C26.7162 20.5191 26.5311 20.9022 26.6532 21.2527C26.7753 21.6032 27.1584 21.7884 27.5089 21.6662Z" fill="#FFF5CC"/>
    <path d="M26.9291 23.3488C27.2796 23.2267 27.4647 22.8436 27.3426 22.4931C27.2205 22.1426 26.8374 21.9575 26.4869 22.0796C26.1364 22.2017 25.9513 22.5848 26.0734 22.9353C26.1955 23.2858 26.5786 23.4709 26.9291 23.3488Z" fill="#FFF5CC"/>
    <path d="M25.697 24.7095C26.0475 24.5874 26.2326 24.2043 26.1105 23.8538C25.9884 23.5033 25.6053 23.3182 25.2548 23.4403C24.9043 23.5624 24.7192 23.9455 24.8413 24.296C24.9634 24.6465 25.3465 24.8316 25.697 24.7095Z" fill="#FFF5CC"/>
    <path d="M24.0519 25.6506C24.4024 25.5285 24.5876 25.1454 24.4654 24.7949C24.3433 24.4444 23.9602 24.2593 23.6097 24.3814C23.2592 24.5035 23.0741 24.8866 23.1962 25.2371C23.3183 25.5876 23.7014 25.7727 24.0519 25.6506Z" fill="#FFF5CC"/>
    <path d="M22.3152 26.2557C22.6657 26.1336 22.8508 25.7505 22.7287 25.4C22.6066 25.0495 22.2235 24.8643 21.873 24.9864C21.5225 25.1086 21.3374 25.4917 21.4595 25.8422C21.5816 26.1927 21.9647 26.3778 22.3152 26.2557Z" fill="#FFF5CC"/>
    <path d="M23.3143 16.7931C22.9217 16.7011 22.5233 16.6361 22.1219 16.5985C20.3223 16.3391 19.3958 16.0233 19.0796 15.1613L17.905 11.7899C17.8526 11.6396 17.7427 11.5163 17.5994 11.4471C17.4562 11.3778 17.2912 11.3684 17.141 11.4207C16.9907 11.4731 16.8674 11.583 16.7981 11.7263C16.7289 11.8695 16.7194 12.0345 16.7717 12.1847L17.7075 14.8705C17.7637 15.032 17.8407 15.253 17.9453 15.5533C18.2474 16.4203 17.7092 17.2463 16.4556 18.5726C16.2835 18.7339 16.1202 18.9043 15.9663 19.0831C15.8663 19.1973 15.7655 19.3182 15.6544 19.4554C14.736 20.5855 14.2431 21.7421 14.8722 23.0098C14.8801 23.0324 14.9345 23.1247 14.95 23.151C15.4435 24.0021 16.2214 24.9765 17.3669 25.2827C19.0431 25.7439 19.7935 25.3903 21.7767 24.6994C23.7599 24.0085 24.5667 23.8164 25.5943 22.4163C26.2903 21.4685 26.3057 20.2178 26.1635 19.2443C26.1536 19.216 26.1389 19.1099 26.1338 19.0863C25.841 17.7078 24.7361 17.1079 23.3143 16.7931Z" fill="#FFF5CC"/>
    <path d="M23.6088 82.3747C31.1247 82.3747 37.2175 76.2819 37.2175 68.766C37.2175 61.2501 31.1247 55.1572 23.6088 55.1572C16.0928 55.1572 10 61.2501 10 68.766C10 76.2819 16.0928 82.3747 23.6088 82.3747Z" fill="#F8CDC4"/>
    <path d="M21.3275 56.1575C29.2404 56.1575 35.655 62.5721 35.655 70.485C35.655 78.3979 29.2404 84.8125 21.3275 84.8125C13.4146 84.8125 7 78.3979 7 70.485C7 62.5721 13.4146 56.1575 21.3275 56.1575Z" fill="#FFCD02"/>
    <g style="mix-blend-mode:multiply" opacity="0.3">
      <path d="M31.4577 60.3553C34.144 63.0422 35.6532 66.6861 35.6532 70.4855C35.6532 74.285 34.144 77.9289 31.4577 80.6157L11.1973 60.3553C13.8841 57.6689 17.528 56.1598 21.3275 56.1598C25.1269 56.1598 28.7708 57.6689 31.4577 60.3553Z" fill="#F19F00"/>
    </g>
    <path d="M21.3278 58.1404C28.1454 58.1404 33.6721 63.6671 33.6721 70.4847C33.6721 77.3023 28.1454 82.8291 21.3278 82.8291C14.5102 82.8291 8.9834 77.3023 8.9834 70.4847C8.9834 63.6671 14.5102 58.1404 21.3278 58.1404Z" fill="#FFF5CC"/>
    <path d="M24.7628 79.8477L21.8528 72.8503H21.8638C21.8219 72.7503 21.7514 72.6648 21.6611 72.6047C21.5708 72.5446 21.4648 72.5125 21.3563 72.5125C21.2478 72.5125 21.1418 72.5446 21.0515 72.6047C20.9612 72.6648 20.8907 72.7503 20.8488 72.8503L17.9608 79.8477C17.9154 79.9994 17.9308 80.1628 18.0037 80.3034C18.0766 80.4441 18.2012 80.5509 18.3514 80.6013C19.292 81.0699 20.3261 81.3209 21.3769 81.3357H21.4127C22.4538 81.3108 23.4766 81.0563 24.408 80.5903C24.5534 80.5386 24.6723 80.4315 24.7388 80.2923C24.8053 80.1531 24.814 79.9932 24.7628 79.8477Z" fill="#FFCD02"/>
    <path d="M16.9328 79.7801C17.0239 79.722 17.0948 79.637 17.1356 79.537L20.0347 72.5369C20.0759 72.4365 20.0866 72.3261 20.0652 72.2197C20.0439 72.1133 19.9916 72.0156 19.9148 71.9388C19.8381 71.8621 19.7404 71.8098 19.634 71.7884C19.5275 71.7671 19.4172 71.7777 19.3168 71.819L12.325 74.7098C12.1849 74.7842 12.0794 74.9104 12.0311 75.0615C11.9828 75.2126 11.9955 75.3766 12.0664 75.5184C12.4046 76.5298 12.9691 77.4508 13.7167 78.2112C14.4662 78.9327 15.366 79.4794 16.3517 79.812C16.4394 79.8458 16.5328 79.8626 16.6268 79.8615C16.7348 79.8667 16.8417 79.8382 16.9328 79.7801Z" fill="#FFCD02"/>
    <path d="M18.9619 70.0067C19.0628 70.0481 19.1491 70.1186 19.2099 70.2092C19.2706 70.2998 19.303 70.4065 19.303 70.5155C19.303 70.6246 19.2706 70.7312 19.2099 70.8218C19.1491 70.9124 19.0628 70.9829 18.9619 71.0244L11.9646 73.9207C11.8926 73.9464 11.8161 73.9576 11.7398 73.9536C11.6634 73.9497 11.5885 73.9307 11.5195 73.8977C11.4505 73.8647 11.3887 73.8184 11.3376 73.7615C11.2865 73.7045 11.2472 73.6381 11.222 73.5659C10.756 72.6355 10.5015 71.6136 10.4766 70.5733C10.4822 69.5011 10.7335 68.4445 11.211 67.4845C11.2608 67.3339 11.3675 67.2088 11.5083 67.1358C11.6491 67.0629 11.8129 67.0478 11.9646 67.0939L18.9619 70.0067Z" fill="#FFCD02"/>
    <path d="M12.2756 66.293L19.2757 69.1921C19.3761 69.2333 19.4864 69.244 19.5928 69.2226C19.6992 69.2013 19.797 69.149 19.8737 69.0722C19.9505 68.9955 20.0028 68.8978 20.0241 68.7914C20.0454 68.6849 20.0348 68.5746 19.9936 68.4742L17.1028 61.4824C17.0278 61.3428 16.9016 61.2378 16.7507 61.1896C16.5998 61.1413 16.4361 61.1536 16.2941 61.2238C15.2827 61.5621 14.3618 62.1265 13.6013 62.8741C12.8788 63.6271 12.3321 64.5307 12.0005 65.5201C11.9346 65.6591 11.9265 65.8186 11.9781 65.9635C12.0297 66.1085 12.1367 66.227 12.2756 66.293Z" fill="#FFCD02"/>
    <path d="M18.2468 60.3825C19.1763 59.9141 20.1988 59.6594 21.2394 59.6371C22.3119 59.6377 23.3695 59.8882 24.3282 60.3688C24.4784 60.4192 24.603 60.526 24.6759 60.6666C24.7488 60.8073 24.7642 60.9707 24.7188 61.1224L21.806 68.1198C21.7646 68.2207 21.6941 68.307 21.6035 68.3677C21.5128 68.4284 21.4062 68.4609 21.2972 68.4609C21.1881 68.4609 21.0815 68.4284 20.9909 68.3677C20.9003 68.307 20.8298 68.2207 20.7883 68.1198L17.892 61.1224C17.8664 61.0506 17.8552 60.9744 17.8592 60.8982C17.8632 60.822 17.8822 60.7473 17.9152 60.6785C17.9482 60.6097 17.9945 60.5482 18.0514 60.4974C18.1083 60.4466 18.1747 60.4075 18.2468 60.3825Z" fill="#FFCD02"/>
    <path d="M30.6283 65.9001C30.6765 65.7492 30.6642 65.5855 30.594 65.4435C30.2535 64.4319 29.6872 63.5111 28.9382 62.7507C28.1844 62.0313 27.2808 61.4874 26.2922 61.1582C26.1532 61.0922 25.9937 61.0842 25.8488 61.1357C25.7039 61.1873 25.5854 61.2943 25.5193 61.4332L22.6202 68.4333C22.5856 68.5164 22.5718 68.6067 22.5802 68.6963C22.5885 68.7859 22.6188 68.872 22.6682 68.9472C22.7176 69.0224 22.7847 69.0844 22.8636 69.1276C22.9425 69.1709 23.0309 69.1941 23.1208 69.1952C23.1955 69.1955 23.2694 69.1805 23.3381 69.1512L30.3355 66.2522C30.475 66.1772 30.58 66.051 30.6283 65.9001Z" fill="#FFCD02"/>
    <path d="M31.4439 73.4721C31.3978 73.5886 31.3205 73.6903 31.2206 73.7659C31.1207 73.8416 31.002 73.8884 30.8773 73.9012C30.813 73.9015 30.7493 73.8883 30.6903 73.8627L23.6929 70.9636C23.5929 70.9218 23.5074 70.8513 23.4473 70.761C23.3872 70.6707 23.3552 70.5646 23.3552 70.4562C23.3552 70.3477 23.3872 70.2417 23.4473 70.1514C23.5074 70.0611 23.5929 69.9906 23.6929 69.9487L30.6903 67.0496C30.7621 67.024 30.8383 67.0128 30.9145 67.0168C30.9907 67.0208 31.0654 67.0398 31.1342 67.0728C31.203 67.1058 31.2645 67.1521 31.3153 67.209C31.3661 67.266 31.4052 67.3324 31.4302 67.4045C31.8987 68.3349 32.1533 69.3583 32.1756 70.3998C32.1691 71.4663 31.9188 72.5172 31.4439 73.4721Z" fill="#FFCD02"/>
    <path d="M30.3795 74.6768L23.3794 71.7778C23.2788 71.7361 23.168 71.7252 23.0611 71.7466C22.9543 71.768 22.8562 71.8206 22.7793 71.8978C22.7024 71.975 22.6501 72.0733 22.6292 72.1802C22.6082 72.2871 22.6195 72.3979 22.6616 72.4984L25.5634 79.4957C25.6059 79.5942 25.678 79.677 25.7696 79.7327C25.8613 79.7884 25.968 79.8142 26.075 79.8065C26.1753 79.8057 26.2748 79.788 26.3693 79.7543C27.3806 79.416 28.3016 78.8516 29.062 78.104C29.7815 77.3513 30.3254 76.4486 30.6546 75.4607C30.689 75.3914 30.7091 75.3158 30.7139 75.2386C30.7186 75.1613 30.7079 75.0839 30.6822 75.0108C30.6566 74.9378 30.6166 74.8706 30.5646 74.8132C30.5127 74.7559 30.4497 74.7095 30.3795 74.6768Z" fill="#FFCD02"/>
    <g style="mix-blend-mode:multiply" opacity="0.3">
      <path d="M24.7628 79.8477L21.8528 72.8503H21.8638C21.8219 72.7503 21.7514 72.6648 21.6611 72.6047C21.5708 72.5446 21.4648 72.5125 21.3563 72.5125C21.2478 72.5125 21.1418 72.5446 21.0515 72.6047C20.9612 72.6648 20.8907 72.7503 20.8488 72.8503L17.9608 79.8477C17.9154 79.9994 17.9308 80.1628 18.0037 80.3034C18.0766 80.4441 18.2012 80.5509 18.3514 80.6013C19.292 81.0699 20.3261 81.3209 21.3769 81.3357H21.4127C22.4538 81.3108 23.4767 81.0563 24.408 80.5903C24.5534 80.5386 24.6723 80.4315 24.7388 80.2923C24.8053 80.1531 24.814 79.9932 24.7628 79.8477Z" fill="#F19F00"/>
      <path d="M19.2099 70.2092C19.1491 70.1186 19.0628 70.0481 18.9619 70.0067L11.9646 67.0939C11.8129 67.0478 11.6491 67.0629 11.5083 67.1358C11.3675 67.2088 11.2608 67.3339 11.211 67.4845C10.7335 68.4445 10.4822 69.5011 10.4766 70.5733C10.5015 71.6136 10.756 72.6355 11.222 73.5659C11.2472 73.6381 11.2865 73.7045 11.3376 73.7615C11.3887 73.8184 11.4505 73.8647 11.5195 73.8977C11.5885 73.9307 11.6634 73.9497 11.7398 73.9536C11.8161 73.9576 11.8926 73.9464 11.9646 73.9207L18.9619 71.0244C19.0628 70.9829 19.1491 70.9124 19.2099 70.8218C19.2706 70.7312 19.303 70.6246 19.303 70.5155C19.303 70.4065 19.2706 70.2998 19.2099 70.2092Z" fill="#F19F00"/>
      <path d="M18.2468 60.3825C19.1763 59.9141 20.1988 59.6594 21.2394 59.6371C22.3119 59.6377 23.3695 59.8882 24.3282 60.3688C24.4784 60.4192 24.603 60.526 24.6759 60.6666C24.7488 60.8073 24.7642 60.9707 24.7188 61.1224L21.806 68.1198C21.7646 68.2207 21.6941 68.307 21.6035 68.3677C21.5128 68.4284 21.4062 68.4609 21.2972 68.4609C21.1881 68.4609 21.0815 68.4284 20.9909 68.3677C20.9003 68.307 20.8298 68.2207 20.7883 68.1198L17.892 61.1224C17.8664 61.0506 17.8552 60.9744 17.8592 60.8982C17.8632 60.822 17.8822 60.7473 17.9152 60.6785C17.9482 60.6097 17.9945 60.5482 18.0514 60.4974C18.1083 60.4466 18.1747 60.4075 18.2468 60.3825Z" fill="#F19F00"/>
      <path d="M31.2206 73.7659C31.3205 73.6903 31.3978 73.5886 31.4439 73.4721C31.9188 72.5172 32.1691 71.4663 32.1756 70.3998C32.1533 69.3583 31.8987 68.3349 31.4302 67.4045C31.4052 67.3324 31.3661 67.266 31.3153 67.209C31.2645 67.1521 31.203 67.1058 31.1342 67.0728C31.0654 67.0398 30.9907 67.0208 30.9145 67.0168C30.8383 67.0128 30.7621 67.024 30.6903 67.0496L23.6929 69.9487C23.5929 69.9906 23.5074 70.0611 23.4473 70.1514C23.3872 70.2417 23.3552 70.3477 23.3552 70.4562C23.3552 70.5646 23.3872 70.6707 23.4473 70.761C23.5074 70.8513 23.5929 70.9218 23.6929 70.9636L30.6903 73.8627C30.7493 73.8883 30.813 73.9015 30.8773 73.9012C31.002 73.8884 31.1207 73.8416 31.2206 73.7659Z" fill="#F19F00"/>
    </g>
    <path d="M98.672 69.449C98.0925 69.8494 97.1374 69.6866 96.5892 68.9379C96.4149 68.6798 96.2246 68.4327 96.0196 68.1981C95.8381 67.9855 95.6393 67.7883 95.4253 67.6084C95.1979 67.4304 94.9381 67.2981 94.6603 67.2188C94.2567 67.0991 94.0362 67.1145 93.7708 67.133C93.7379 67.1353 93.7042 67.1377 93.6694 67.1398C93.6474 67.1412 93.625 67.1424 93.602 67.1436C93.6729 67.7705 93.6466 68.3912 93.516 68.9921C93.032 71.218 91.1167 73.1722 87.4133 74.1681C87.1813 74.2304 86.9093 74.2979 86.6012 74.3697C79.9778 75.9123 56.6605 79.4236 55.8156 76.2816C54.9314 72.9936 78.9902 63.6664 84.2112 62.2624C88.9269 60.9943 91.9113 62.5229 93.0963 65.2534C93.4062 65.1026 93.6381 64.9893 93.9651 64.6428C94.1661 64.4346 94.3253 64.1897 94.434 63.9214C94.5279 63.6561 94.6012 63.3839 94.6535 63.1074C94.7132 62.8022 94.755 62.4937 94.7785 62.1835C94.8932 61.1109 95.8818 60.45 96.6571 60.7773C96.9841 60.9163 97.1061 61.1563 97.2135 61.3676C97.3148 61.5669 97.4032 61.7406 97.6383 61.7798C97.7507 61.804 97.8681 61.7878 97.9697 61.734C98.1543 61.6522 98.1999 61.4434 98.2504 61.2116C98.2806 61.0731 98.3126 60.9264 98.3771 60.7937C98.4719 60.6055 98.6031 60.438 98.7631 60.3009C98.923 60.1637 99.1086 60.0597 99.3091 59.9947C99.5095 59.9297 99.7208 59.9051 99.9308 59.9224C100.141 59.9396 100.345 59.9983 100.533 60.095C100.712 60.1877 100.869 60.3171 100.995 60.4748C101.121 60.6325 101.212 60.815 101.262 61.0103C101.313 61.2056 101.322 61.4094 101.288 61.6083C101.254 61.8072 101.179 61.9968 101.067 62.1647C101.026 62.2448 101.009 62.3358 101.019 62.4256C101.03 62.5155 101.068 62.6 101.127 62.6682C101.245 62.7662 101.545 62.7533 101.834 62.4782C102.243 62.1032 102.732 61.8256 103.263 61.6662C103.711 61.5274 104.195 61.5658 104.615 61.7734C104.829 61.8964 105.015 62.0621 105.161 62.2602C105.307 62.4583 105.411 62.6845 105.466 62.9247C105.539 63.16 105.562 63.4078 105.535 63.6525C105.507 63.8973 105.43 64.1338 105.307 64.3474C105.176 64.5459 105.007 64.7149 104.814 64.8467C104.624 64.9772 104.41 65.0719 104.182 65.1238C103.643 65.254 103.081 65.2598 102.539 65.1408C102.274 65.0762 102.065 65.1219 101.943 65.2039C101.891 65.2401 101.856 65.2828 101.839 65.326C101.823 65.415 101.834 65.5067 101.87 65.5895C101.906 65.6723 101.966 65.7424 102.043 65.7909C102.882 66.247 103.025 67.1097 102.62 67.849C102.518 68.0365 102.371 68.1909 102.198 68.309C101.688 68.6609 100.941 68.6957 100.398 68.3304C100.274 68.2482 100.172 68.1365 100.075 68.0312C99.9169 67.858 99.7743 67.7021 99.5748 67.7238C99.4833 67.7266 99.395 67.7553 99.3199 67.8059C99.3024 67.8181 99.2856 67.8316 99.2697 67.8462C99.0872 67.9977 99.0984 68.192 99.1113 68.4149C99.125 68.6515 99.1406 68.9202 98.9286 69.2043C98.8558 69.3014 98.7691 69.383 98.672 69.449Z" fill="#F8CDC4"/>
    <path d="M92.492 71.9911C92.5976 72.5311 93.1055 72.7346 93.6433 72.7472C94.1812 72.7598 94.4588 72.7027 95.0486 72.9238C95.3352 73.0275 95.5992 73.1853 95.8263 73.3886C96.0379 73.5959 96.2334 73.8192 96.4109 74.0564C96.6088 74.3173 96.7912 74.5896 96.9571 74.8719C97.5626 75.8328 98.8034 75.9996 99.3847 75.3309C99.8603 74.781 99.4273 74.2293 99.8479 73.9285C99.9429 73.8535 100.061 73.8145 100.182 73.8182C100.522 73.8052 100.676 74.2628 101.003 74.5184C101.18 74.6524 101.382 74.7499 101.596 74.8055C101.811 74.861 102.035 74.8734 102.254 74.8419C102.474 74.8105 102.685 74.7358 102.876 74.6222C103.066 74.5086 103.233 74.3584 103.365 74.1802C103.491 74.0096 103.58 73.8142 103.626 73.6068C103.672 73.3994 103.673 73.1847 103.631 72.9767C103.588 72.7686 103.502 72.572 103.378 72.3995C103.254 72.227 103.095 72.0826 102.911 71.9757C102.835 71.9194 102.777 71.8411 102.745 71.7513C102.714 71.6614 102.71 71.5641 102.734 71.4721C102.801 71.3246 103.09 71.198 103.49 71.3243C104.051 71.4892 104.642 71.5252 105.218 71.4296C105.706 71.3533 106.146 71.0928 106.447 70.7017C106.592 70.4866 106.69 70.2438 106.737 69.9887C106.784 69.7336 106.777 69.4716 106.718 69.2191C106.677 68.963 106.584 68.718 106.445 68.4992C106.306 68.2805 106.123 68.0927 105.908 67.9476C105.481 67.6982 104.975 67.6225 104.494 67.7364C103.923 67.8632 103.389 68.118 102.932 68.4817C102.611 68.749 102.296 68.7406 102.176 68.6295C102.12 68.5529 102.087 68.4612 102.083 68.3661C102.079 68.271 102.103 68.1769 102.153 68.0957C102.736 67.2755 102.471 66.3938 101.746 65.8823C101.021 65.3709 99.8889 65.6622 99.4306 66.4581C99.2202 66.816 99.2527 67.2974 98.9333 67.4131C98.822 67.4635 98.6963 67.4721 98.5792 67.4375C98.079 67.3166 98.2725 66.6425 97.6275 66.3116C96.8335 65.9061 95.7473 66.5305 95.5482 67.6487C95.5029 67.9735 95.4375 68.2952 95.3524 68.612C95.2765 68.897 95.1771 69.1752 95.0553 69.4438C94.9226 69.7174 94.7384 69.9629 94.5125 70.1665C94.0255 70.6149 93.785 70.5891 93.2766 70.8566C92.9689 71.0177 92.3875 71.4565 92.492 71.9911Z" fill="#8BA912"/>
    <g style="mix-blend-mode:multiply" opacity="0.3">
      <path d="M105.9 67.9461C105.473 67.6966 104.966 67.621 104.485 67.7349C103.915 67.8617 103.381 68.1165 102.923 68.4802C102.603 68.7475 102.287 68.7391 102.167 68.6279C102.111 68.5513 102.079 68.4597 102.074 68.3646C102.07 68.2695 102.095 68.1754 102.144 68.0942C102.727 67.274 102.462 66.3922 101.737 65.8808C101.012 65.3694 99.8802 65.6606 99.4219 66.4566C99.2115 66.8145 99.2439 67.2959 98.9246 67.4116C98.8133 67.4619 98.6876 67.4706 98.5705 67.436C98.0703 67.3151 98.2637 66.6409 97.6188 66.3101C96.8247 65.9046 95.7386 66.529 95.5394 67.6471C95.4942 67.972 95.4288 68.2937 95.3437 68.6105C95.2706 68.8956 95.1741 69.1741 95.0552 69.4434C94.9226 69.717 94.7383 69.9625 94.5124 70.1661C94.0254 70.6145 93.7849 70.5887 93.2765 70.8562C92.9688 71.0173 92.3874 71.4561 92.4919 71.9907C92.4917 71.9963 92.4928 72.0018 92.4951 72.0069L106.711 69.2284C106.672 68.9702 106.579 68.723 106.44 68.5023C106.3 68.2816 106.116 68.0922 105.9 67.9461Z" fill="#969390"/>
    </g>
    <path d="M84.4409 66.9547C90.0274 65.8628 93.1336 68.2159 93.8212 71.7341C94.5088 75.2523 92.5172 78.6018 86.9308 79.6937C81.3443 80.7855 54.2777 83.1155 53.59 79.5973C52.9024 76.0791 78.8572 68.0461 84.4409 66.9547Z" fill="#F8783A"/>
    <g style="mix-blend-mode:multiply" opacity="0.3">
      <path d="M53.5898 79.5972C52.9038 76.0871 78.857 68.0459 84.4407 66.9546C90.0245 65.8632 93.1334 68.2158 93.821 71.734L53.5898 79.5972Z" fill="#C8C4C0"/>
    </g>
  </g>
  <defs>
    <clipPath id="clip0">
      <rect width="106" height="96" fill="white"/>
    </clipPath>
  </defs>
</svg>
