<?xml version="1.0" encoding="utf-8"?>
<!-- Generator: Adobe Illustrator 23.1.1, SVG Export Plug-In . SVG Version: 6.00 Build 0)  -->
<svg version="1.1" id="Layer_1" xmlns="http://www.w3.org/2000/svg" xmlns:xlink="http://www.w3.org/1999/xlink" x="0px" y="0px"
	 viewBox="0 0 234.5 26" style="enable-background:new 0 0 234.5 26;" xml:space="preserve">
<path d="M20.7,25.2V25c0-0.7,1.3-0.7,1.3-2V12.1c0-1.4-1.3-1.7-1.3-2.3V9.8c0-0.3,0.2-0.4,0.5-0.5l2.8-1.4c0.8-0.4,1.1,0,1.1,0.5V23
	c0,1.3,1.5,1.3,1.5,2v0.1c0,0.3-0.3,0.5-0.8,0.5h-4.5C21,25.6,20.7,25.4,20.7,25.2z M21.1,2.3C21.1,1,22,0,23.5,0
	c1.4,0,2.4,1,2.4,2.3c0,1.4-1,2.3-2.4,2.3C22,4.6,21.1,3.7,21.1,2.3z"/>
<path d="M41.3,16.7c0-5.5,4-9,9-9c4,0,7.1,2.5,7.1,4.5c0,0.7-0.4,1.3-1.5,1.3c-2.1-0.1-2.1-4.6-6.3-4.6c-3,0-5.2,2.8-5.2,6.4
	c0,5.1,2.9,8.4,7,8.4c2.6,0,4.2-1.6,5.1-3.4c0.3-0.5,1.2-0.4,1.1,0.3c-0.5,2.7-2.9,5.5-7.2,5.5C45.4,26,41.3,22,41.3,16.7z"/>
<path d="M96.4,20.8C95.9,23,93.6,26,89.1,26c-5.1,0-8.8-3.7-8.8-9.3c0-5.3,3.7-9,8.7-9c3.7,0,6.4,1.7,6.4,4.9c0,2.5-2.3,4.6-5.7,5.3
	c-2.3,0.4-4.4,0.3-6.2,0.2c0.8,3.4,3.1,5.6,6.4,5.6c2.8,0,4.5-1.4,5.3-3.2C95.6,20,96.4,20.1,96.4,20.8z M83.3,15.4
	c0,0.4,0,0.9,0.1,1.3c1.6,0.1,3.8,0.2,5.8-0.2c2-0.4,3.3-1.6,3.3-3.9c0-2.1-1.6-3.6-3.9-3.6C85.4,8.9,83.3,11.8,83.3,15.4z"/>
<path d="M117.5,25v0.1c0,0.3-0.3,0.5-0.8,0.5h-4.4c-0.5,0-0.8-0.2-0.8-0.5V25c0-0.7,1.4-0.7,1.3-2l-0.4-7.3c-0.2-4.5-2-6.6-4.5-6.6
	c-2.7,0-4.6,2.2-4.6,5.1v8.9c0,1.3,1.5,1.3,1.5,2v0.1c0,0.3-0.3,0.5-0.8,0.5h-4.6c-0.4,0-0.7-0.2-0.7-0.5V25c0-0.7,1.4-0.7,1.4-2V12
	c0-1.6-1.5-1.5-1.5-2.2V9.7c0-0.3,0.2-0.4,0.6-0.5l2.7-1.3c0.7-0.4,1,0,1,0.5v2.7c1.1-2,3.2-3.4,5.7-3.4c3.6,0,6.6,2.4,7,8.1
	l0.4,7.2C116.2,24.3,117.5,24.3,117.5,25z"/>
<path d="M127.7,21.8c0-0.9,0.6-1.4,1.4-1.4c2.3,0,1.1,4.5,6,4.5c2.3,0,4.2-1.1,4.2-3.2c0-5.4-11.2-1.8-11.2-9c0-2.8,2.9-5,6.9-5
	c4.5,0,7.1,2.3,7.1,4.3c0,0.7-0.6,1.3-1.3,1.3c-2.1,0-1.2-4.5-5.7-4.5c-2.1,0-3.8,1.4-3.8,3.2c0,5.3,11.2,1.7,11.2,9
	c0,2.7-2.9,4.9-7.4,4.9C130.3,26,127.7,23.5,127.7,21.8z"/>
<path d="M157.7,16.6c0-5.1,3.9-8.9,8.9-8.9c5.5,0,9.3,4.2,9.3,9.3c0,5.1-3.5,9-8.6,9C161.5,26,157.7,21.6,157.7,16.6z M172.7,18.1
	c0-5.1-2.7-9.2-6.4-9.2c-3.1,0-5.3,2.6-5.3,6.7c0,4.7,2.7,9.2,6.7,9.2C170.6,24.8,172.7,22.2,172.7,18.1z"/>
<path d="M190.7,10.5c0,1-0.4,1.7-1.5,1.7c-1.9,0-1-2.6-3.3-2.6c-2,0-3.1,2.3-3.1,5.1v8.3c0,1.3,1.5,1.3,1.5,2v0.1
	c0,0.3-0.3,0.4-0.7,0.4h-4.5c-0.5,0-0.7-0.1-0.7-0.4V25c0-0.7,1.4-0.7,1.4-2V11.9c0-1.4-1.5-1.4-1.5-2.1V9.7c0-0.3,0.2-0.5,0.5-0.7
	l2.8-1.2c0.7-0.3,1,0,1,0.5v2.9c0.8-2.3,2.5-3.6,4.8-3.6C189.5,7.7,190.7,9,190.7,10.5z"/>
<path d="M192.9,25.2V25c0-0.7,1.3-0.7,1.3-2V12.1c0-1.4-1.3-1.7-1.3-2.3V9.8c0-0.3,0.2-0.4,0.5-0.5l2.8-1.4c0.8-0.4,1.1,0,1.1,0.5
	V23c0,1.3,1.5,1.3,1.5,2v0.1c0,0.3-0.3,0.5-0.8,0.5h-4.5C193.2,25.6,192.9,25.4,192.9,25.2z M193.3,2.3c0-1.4,1-2.3,2.5-2.3
	c1.4,0,2.4,1,2.4,2.3c0,1.4-1,2.3-2.4,2.3C194.3,4.6,193.3,3.7,193.3,2.3z"/>
<path d="M217.3,20.8c-0.5,2.2-2.7,5.2-7.2,5.2c-5.1,0-8.8-3.7-8.8-9.3c0-5.3,3.7-9,8.7-9c3.7,0,6.4,1.7,6.4,4.9
	c0,2.5-2.3,4.6-5.7,5.3c-2.3,0.4-4.4,0.3-6.2,0.2c0.8,3.4,3.1,5.6,6.4,5.6c2.8,0,4.5-1.4,5.3-3.2C216.5,20,217.4,20.1,217.3,20.8z
	 M204.2,15.4c0,0.4,0,0.9,0.1,1.3c1.6,0.1,3.8,0.2,5.8-0.2c2-0.4,3.3-1.6,3.3-3.9c0-2.1-1.6-3.6-3.9-3.6
	C206.3,8.9,204.2,11.8,204.2,15.4z"/>
<path d="M219.7,21.8c0-0.9,0.6-1.4,1.4-1.4c2.3,0,1.1,4.5,6,4.5c2.3,0,4.2-1.1,4.2-3.2c0-5.4-11.2-1.8-11.2-9c0-2.8,2.9-5,6.9-5
	c4.5,0,7.1,2.3,7.1,4.3c0,0.7-0.6,1.3-1.3,1.3c-2.1,0-1.2-4.5-5.7-4.5c-2.1,0-3.8,1.4-3.8,3.2c0,5.3,11.2,1.7,11.2,9
	c0,2.7-2.9,4.9-7.4,4.9C222.2,26,219.7,23.5,219.7,21.8z"/>
<path d="M16.7,23.5l-5.6-7.8c3.3-2,4.4-5.1,4.4-6.5c0-0.8-0.5-1.5-1.5-1.5c-3,0-0.3,7.8-9.3,8.1V5.8v-5c0-0.5-0.4-0.9-1.1-0.5
	L0.5,1.6C0.2,1.7,0,1.9,0,2.2v0c0,0.7,1.4,1,1.4,2.3v2.9V23c0,1.3-1.4,1.3-1.4,2v0.1c0,0.3,0.3,0.5,0.8,0.5h4.5
	c0.5,0,0.8-0.2,0.8-0.5V25c0-0.8-1.5-0.8-1.5-2v-5.6c1.5,0,2.7-0.3,3.8-0.6l4.7,6.7c0.5,0.8-0.7,0.8-0.7,1.5v0.1
	c0,0.3,0.2,0.5,0.5,0.5h4.7c0.4,0,0.5-0.2,0.5-0.5V25C18.3,24.3,17.2,24.2,16.7,23.5z"/>
<path d="M77.2,23l-0.4-7.4c-0.3-5.5-3.3-7.9-6.9-7.9c-2.3,0-4.3,1.1-5.5,2.9l0-6h0l0-4c0-0.5-0.4-0.8-1.1-0.5l-3,1.3
	C60.2,1.6,60,1.8,60,2.1v0.1c0,0.6,1.4,0.7,1.4,2.1v0.5h0v18.2c0,1.3-1.4,1.2-1.4,2v0.1c0,0.3,0.3,0.5,0.7,0.5h4.6
	c0.4,0,0.8-0.2,0.8-0.5V25c0-0.7-1.5-0.7-1.5-2v-8.9c0-2.9,1.9-5.1,4.6-5.1c2.5,0,4.3,2.1,4.5,6.4L74,23c0.1,1.3-1.3,1.3-1.3,2v0.1
	c0,0.3,0.3,0.4,0.7,0.4h4.4c0.4,0,0.7-0.1,0.7-0.4V25C78.6,24.3,77.4,24.3,77.2,23z"/>
<path d="M39.4,9.5c0.3,0,0.5-0.2,0.5-0.5V8.6c0-0.3-0.3-0.5-0.5-0.5h-5l0-3.5c0-0.5-0.1-0.7-0.6-0.7h-0.4c-0.3,0-0.6,0.3-0.6,0.7
	c-0.2,2.1-1,3.5-2.8,3.5h-1.3c-0.4,0-0.5,0.2-0.5,0.5V9c0,0.3,0.2,0.5,0.5,0.5H31v10.9c0,3.6,1.7,5.4,4.4,5.5c0.1,0,0.1,0,0.2,0
	c0.1,0,0.1,0,0.2,0c0,0,0.1,0,0.1,0c0,0,0.1,0,0.2,0c0.5,0,0.9-0.1,1.2-0.2c1.3-0.4,2.3-1.4,2.7-2.6c0.2-0.6-0.6-1-1-0.5
	c-0.5,0.9-1.4,1.4-2.5,1.3c-1.2-0.1-2.1-1.5-2.1-3.4v-11H39.4z"/>
<path d="M155.8,9.5c0.3,0,0.5-0.2,0.5-0.5V8.6c0-0.3-0.3-0.5-0.5-0.5h-5.1l0-3.5c0-0.5-0.1-0.7-0.6-0.7h-0.4c-0.3,0-0.6,0.3-0.6,0.7
	c-0.2,2.1-1,3.5-2.8,3.5h-1.3c-0.4,0-0.5,0.2-0.5,0.5V9c0,0.3,0.2,0.5,0.5,0.5h2.4v10.9c0,3.6,1.7,5.4,4.4,5.5c0.1,0,0.1,0,0.2,0
	c0.1,0,0.1,0,0.2,0c0,0,0.1,0,0.1,0c0,0,0.1,0,0.1,0c0.5,0,0.9-0.1,1.2-0.2c1.3-0.4,2.3-1.4,2.7-2.6c0.2-0.6-0.6-1-1-0.5
	c-0.5,0.9-1.4,1.4-2.5,1.3c-1.2-0.1-2.1-1.5-2.1-3.4v-11H155.8z"/>
</svg>
