<svg width="48" height="48" viewBox="0 0 48 48" fill="none" xmlns="http://www.w3.org/2000/svg">
  <path fill-rule="evenodd" clip-rule="evenodd" d="M24.0008 43.1998C34.6044 43.1998 43.2008 34.6034 43.2008 23.9998C43.2008 13.3962 34.6044 4.7998 24.0008 4.7998C13.3971 4.7998 4.80078 13.3962 4.80078 23.9998C4.80078 34.6034 13.3971 43.1998 24.0008 43.1998Z" stroke="#212121" stroke-width="2"/>
  <path d="M19.046 13.8662C21.3669 18.9901 20.9795 22.3372 18.8773 23.2893C16.775 24.2397 14.0082 22.332 11.6855 17.1995" stroke="#212121" stroke-width="2" stroke-linecap="round" stroke-linejoin="round"/>
  <path d="M15.3555 15.5381L25.2847 37.4713" stroke="#212121" stroke-width="2" stroke-linecap="round" stroke-linejoin="round"/>
  <path d="M36.056 31.4907L26.187 9.68487C26.1337 9.56779 25.7049 9.69003 25.5689 9.86393C23.1223 13.0578 24.4446 15.8849 25.2676 17.765L27.6453 23.2109L31.5434 21.5201" stroke="#212121" stroke-width="2" stroke-linecap="round" stroke-linejoin="round"/>
</svg>
