<svg width="48" height="48" viewBox="0 0 48 48" fill="none" xmlns="http://www.w3.org/2000/svg">
  <path fill-rule="evenodd" clip-rule="evenodd" d="M43.2008 19.8462H4.80078C4.80078 25.7575 7.35438 39.6223 18.9435 39.3819H29.0581C40.5569 39.3819 43.0145 25.9592 43.2008 19.8462Z" stroke="#212121" stroke-width="2" stroke-linecap="round" stroke-linejoin="round"/>
  <path d="M33.1322 39.3857V43.2H14.8691V39.3857" stroke="#212121" stroke-width="2" stroke-linecap="round" stroke-linejoin="round"/>
  <path d="M18.6546 4.7998C18.6546 4.7998 16.5138 7.60443 18.215 10.4452C19.918 13.286 19.3862 15.4335 18.9945 16.0906" stroke="#212121" stroke-width="2" stroke-linecap="round" stroke-linejoin="round"/>
  <path d="M24.1532 4.7998C24.1532 4.7998 22.0124 7.60443 23.7135 10.4452C25.4166 13.286 24.8828 15.4335 24.4911 16.0906" stroke="#212121" stroke-width="2" stroke-linecap="round" stroke-linejoin="round"/>
  <path d="M29.6536 4.7998C29.6536 4.7998 27.5128 7.60443 29.2139 10.4452C30.915 13.286 30.3832 15.4335 29.9915 16.0906" stroke="#212121" stroke-width="2" stroke-linecap="round" stroke-linejoin="round"/>
</svg>
