<svg width="106" height="96" viewBox="0 0 106 96" fill="none" xmlns="http://www.w3.org/2000/svg">
  <g clip-path="url(#clip0)">
    <path d="M8.88478 39.0984C11.4199 27.7308 15.4011 17.2835 22.8242 10.9322C30.2473 4.58086 41.1051 2.35386 49.8833 5.25405C58.6791 8.14432 65.3777 16.1717 74.5327 22.7922C83.6877 29.4127 95.243 34.6091 98.5651 42.656C101.877 50.6843 96.8991 61.5458 90.1572 69.2724C83.4152 76.9989 74.8842 81.629 65.578 85.3764C56.2719 89.1238 46.2009 92.007 35.8467 90.1403C25.4924 88.2737 14.8443 81.6386 10.0612 72.1913C5.27813 62.744 6.34963 50.4659 8.88478 39.0984Z" fill="#FFF7CE"/>
    <path d="M31.2695 41.2646C30.3138 41.7952 29.4722 42.5197 28.802 43.3978C27.1839 43.0441 25.4919 43.3113 24.0615 44.1463C20.3386 46.1643 19.0076 50.3297 22.8598 57.6829C23.0167 57.9822 23.1746 58.285 23.3338 58.5901C27.0851 65.7797 31.5237 74.2867 37.9887 70.7792C38.4906 70.5088 38.9579 70.1786 39.3804 69.7959C39.9178 70.0654 40.503 70.2265 41.1027 70.2699C41.7023 70.3132 42.3046 70.238 42.8752 70.0486C43.4458 69.8592 43.9734 69.5592 44.428 69.1658C44.8827 68.7724 45.2554 68.2933 45.5248 67.7559C46.0476 67.7861 46.5722 67.7576 47.0886 67.6709C54.3716 66.4867 52.6549 56.9785 51.2119 48.9863C51.1555 48.6737 51.0994 48.3634 51.0444 48.0559C49.5819 39.89 45.9922 37.4019 41.8034 38.0863C40.16 38.3012 38.6573 39.1253 37.5925 40.3953C36.535 40.1115 35.4362 40.0512 34.3648 40.2112L33.5725 37.8916C32.2187 33.928 29.8461 32.8692 28.0952 32.6794C27.6678 32.6399 27.242 32.77 26.9097 33.0417C26.5774 33.3134 26.3652 33.7049 26.3191 34.1316C26.273 34.5584 26.3966 34.9862 26.6631 35.3226C26.9297 35.659 27.3179 35.8771 27.7439 35.9298C28.1821 35.9773 29.5128 36.1214 30.4784 38.9485L31.2695 41.2646Z" fill="#FFE167"/>
    <path d="M37.6833 41.8358C36.0058 42.3155 34.5696 43.4075 33.6588 44.8957C31.9326 44.6986 30.1879 45.0449 28.6678 45.8862C27.1035 46.6438 25.8129 47.8684 24.9745 49.391C23.2347 49.2748 21.5148 49.8165 20.1556 50.9087C16.5938 53.5896 15.857 58.1337 21.013 65.1893C26.1691 72.2449 32.3572 81.3243 38.8043 76.4677C39.2847 76.108 39.7198 75.6915 40.1001 75.2272C40.7016 75.4241 41.3359 75.5006 41.967 75.4524C42.598 75.4041 43.2134 75.232 43.7779 74.9459C44.3425 74.6598 44.8451 74.2653 45.2572 73.7849C45.6692 73.3045 45.9826 72.7477 46.1795 72.1462C46.7285 72.0962 47.2702 71.9848 47.7943 71.8141C55.4819 69.3541 51.652 59.0501 48.8574 50.776C46.0628 42.502 41.9378 40.4707 37.6833 41.8358Z" fill="#F8783A"/>
    <path d="M33.0447 46.0827C32.4134 46.6227 31.2936 47.1325 30.7264 46.0967L29.0792 42.9146C27.0523 38.9988 24.4172 38.266 22.5647 38.3412C22.1136 38.3666 21.6905 38.5684 21.3868 38.903C21.0832 39.2377 20.9233 39.6783 20.9418 40.1298C20.9602 40.5813 21.1555 41.0074 21.4854 41.3162C21.8154 41.6249 22.2535 41.7915 22.7053 41.78C23.1684 41.7612 24.5762 41.703 26.0224 44.4969L27.6127 47.569C27.6237 47.5904 27.6332 47.6087 27.6443 47.6301C28.2124 48.7275 27.1267 49.3631 26.3197 49.5638C26.3064 49.5678 26.2948 49.576 26.2864 49.5871C26.2781 49.5982 26.2735 49.6117 26.2734 49.6256C26.2732 49.6395 26.2775 49.6531 26.2856 49.6644C26.2937 49.6757 26.3052 49.6842 26.3184 49.6885C27.5371 50.085 28.6688 50.7109 29.6526 51.5323L30.1637 52.5196C30.3089 52.7962 30.5267 53.028 30.7936 53.1903C31.0606 53.3525 31.3667 53.439 31.6791 53.4405C32.326 54.1535 32.9331 54.9015 33.4978 55.6812C33.4978 55.6812 33.6928 55.9679 33.8425 55.8903C33.9923 55.8128 33.8708 55.4881 33.8708 55.4881C33.561 54.5778 33.3014 53.6513 33.0929 52.7126C33.274 52.4564 33.3815 52.1556 33.404 51.8427C33.4265 51.5298 33.363 51.2167 33.2205 50.9373L32.7094 49.9499C32.6149 48.6709 32.7652 47.3856 33.152 46.1628C33.1627 46.1485 33.1672 46.1307 33.1646 46.1131C33.1621 46.0955 33.1526 46.0797 33.1384 46.0691C33.1242 46.0584 33.1063 46.0539 33.0887 46.0565C33.0711 46.059 33.0553 46.0685 33.0447 46.0827Z" fill="#8BA912"/>
    <path d="M42.2268 71.8657C42.0458 71.9578 41.8472 72.0104 41.6443 72.0199C41.4413 72.0293 41.2387 71.9955 41.0499 71.9207L38.8673 71.2908L37.4295 73.0506C37.2238 73.3025 36.9875 73.5276 36.7261 73.7209C36.5347 73.8677 36.331 73.9978 36.1173 74.1097C32.9382 75.7553 27.9966 68.9569 24.3862 63.9887L23.785 63.1643C18.759 56.2701 21.282 54.3827 22.2248 53.6583C22.4523 53.4867 22.6931 53.3336 22.945 53.2002C23.62 52.8252 24.4107 52.7159 25.1622 52.8936L27.7599 53.4868L28.9782 51.1082C29.3624 50.4198 29.9544 49.8705 30.6696 49.5388C31.3367 49.1584 32.1038 48.9898 32.8689 49.0554L35.4086 49.3493L36.4241 47.0058C36.7185 46.3139 37.2546 45.7526 37.9323 45.4267C38.1875 45.2974 38.4526 45.1887 38.7252 45.1016C39.8562 44.7409 42.8586 43.7797 45.5859 51.8639L45.9136 52.8338C47.8903 58.6592 50.5851 66.6206 47.4091 68.2646C47.1943 68.3745 46.9705 68.4657 46.7401 68.5372C46.4536 68.6305 46.1575 68.6914 45.8575 68.7189L43.6819 68.9188L42.9378 70.9705C42.8883 71.1611 42.7995 71.3392 42.677 71.4933C42.5546 71.6475 42.4012 71.7744 42.2268 71.8657Z" fill="#C74607"/>
    <path opacity="0.3" d="M42.2265 71.8669C42.407 71.7724 42.5652 71.6405 42.6907 71.48C42.8161 71.3195 42.9059 71.134 42.954 70.9361L43.6998 68.7903C41.3508 68.9172 39.1026 61.4067 37.5415 56.6762C35.9804 51.9457 35.4046 50.1895 35.9074 48.6076C35.1933 48.5083 31.4809 49.1237 30.6709 49.543C29.8608 49.9624 27.2303 52.6302 26.8868 53.277C28.464 53.7706 29.5701 55.2561 32.5314 59.2696C35.4926 63.2831 40.3268 69.4472 38.867 71.292L41.0496 71.9218C41.2384 71.9967 41.441 72.0305 41.644 72.021C41.8469 72.0115 42.0455 71.959 42.2265 71.8669Z" fill="#F8783A"/>
    <path d="M25.5872 54.8279C25.9654 54.6321 26.1133 54.1669 25.9175 53.7887C25.7218 53.4105 25.2565 53.2627 24.8783 53.4584C24.5002 53.6542 24.3523 54.1194 24.5481 54.4976C24.7438 54.8757 25.2091 55.0236 25.5872 54.8279Z" fill="#FFF5CC"/>
    <path d="M25.4078 56.8549C25.786 56.6592 25.9339 56.1939 25.7381 55.8158C25.5424 55.4376 25.0771 55.2897 24.699 55.4855C24.3208 55.6812 24.1729 56.1465 24.3687 56.5246C24.5644 56.9028 25.0297 57.0507 25.4078 56.8549Z" fill="#FFF5CC"/>
    <path d="M26.3369 58.6497C26.715 58.4539 26.8629 57.9887 26.6672 57.6105C26.4714 57.2323 26.0062 57.0845 25.628 57.2802C25.2498 57.476 25.102 57.9412 25.2977 58.3194C25.4935 58.6975 25.9587 58.8454 26.3369 58.6497Z" fill="#FFF5CC"/>
    <path d="M27.7473 60.124C28.1255 59.9283 28.2734 59.463 28.0776 59.0849C27.8819 58.7067 27.4166 58.5588 27.0384 58.7546C26.6603 58.9503 26.5124 59.4156 26.7082 59.7938C26.9039 60.1719 27.3692 60.3198 27.7473 60.124Z" fill="#FFF5CC"/>
    <path d="M29.6036 60.9694C29.9818 60.7737 30.1296 60.3084 29.9339 59.9303C29.7381 59.5521 29.2729 59.4042 28.8947 59.6C28.5166 59.7957 28.3687 60.261 28.5644 60.6392C28.7602 61.0173 29.2254 61.1652 29.6036 60.9694Z" fill="#FFF5CC"/>
    <path d="M31.7088 61.016C32.087 60.8203 32.2348 60.355 32.0391 59.9769C31.8433 59.5987 31.3781 59.4508 30.9999 59.6466C30.6218 59.8423 30.4739 60.3076 30.6696 60.6857C30.8654 61.0639 31.3306 61.2118 31.7088 61.016Z" fill="#FFF5CC"/>
    <path d="M33.7937 60.3857C34.1718 60.19 34.3197 59.7247 34.124 59.3466C33.9282 58.9684 33.463 58.8205 33.0848 59.0163C32.7066 59.212 32.5588 59.6773 32.7545 60.0554C32.9503 60.4336 33.4155 60.5815 33.7937 60.3857Z" fill="#FFF5CC"/>
    <path d="M37.7411 48.5366C38.1193 48.3408 38.2672 47.8756 38.0714 47.4974C37.8757 47.1192 37.4104 46.9714 37.0322 47.1671C36.6541 47.3629 36.5062 47.8281 36.702 48.2063C36.8977 48.5844 37.363 48.7323 37.7411 48.5366Z" fill="#FFF5CC"/>
    <path d="M39.4998 49.5604C39.8779 49.3647 40.0258 48.8994 39.8301 48.5213C39.6343 48.1431 39.1691 47.9952 38.7909 48.191C38.4127 48.3867 38.2649 48.852 38.4606 49.2301C38.6564 49.6083 39.1216 49.7562 39.4998 49.5604Z" fill="#FFF5CC"/>
    <path d="M40.4288 51.3552C40.807 51.1594 40.9548 50.6942 40.7591 50.316C40.5633 49.9379 40.0981 49.79 39.7199 49.9857C39.3418 50.1815 39.1939 50.6467 39.3896 51.0249C39.5854 51.4031 40.0506 51.5509 40.4288 51.3552Z" fill="#FFF5CC"/>
    <path d="M40.8183 53.358C41.1965 53.1623 41.3443 52.697 41.1486 52.3189C40.9528 51.9407 40.4876 51.7928 40.1094 51.9886C39.7313 52.1843 39.5834 52.6496 39.7791 53.0277C39.9749 53.4059 40.4401 53.5538 40.8183 53.358Z" fill="#FFF5CC"/>
    <path d="M40.4338 55.3633C40.812 55.1676 40.9599 54.7023 40.7641 54.3242C40.5684 53.946 40.1031 53.7981 39.725 53.9939C39.3468 54.1896 39.1989 54.6549 39.3947 55.033C39.5904 55.4112 40.0557 55.5591 40.4338 55.3633Z" fill="#FFF5CC"/>
    <path d="M39.2561 57.1092C39.6343 56.9135 39.7822 56.4482 39.5864 56.0701C39.3907 55.6919 38.9254 55.544 38.5473 55.7398C38.1691 55.9355 38.0212 56.4008 38.217 56.779C38.4127 57.1571 38.878 57.305 39.2561 57.1092Z" fill="#FFF5CC"/>
    <path d="M37.5411 58.4459C37.9192 58.2502 38.0671 57.7849 37.8714 57.4068C37.6756 57.0286 37.2104 56.8807 36.8322 57.0765C36.454 57.2722 36.3062 57.7375 36.5019 58.1157C36.6977 58.4938 37.1629 58.6417 37.5411 58.4459Z" fill="#FFF5CC"/>
    <path d="M35.6672 59.4159C36.0454 59.2202 36.1933 58.7549 35.9975 58.3767C35.8018 57.9986 35.3365 57.8507 34.9583 58.0465C34.5802 58.2422 34.4323 58.7075 34.6281 59.0856C34.8238 59.4638 35.2891 59.6117 35.6672 59.4159Z" fill="#FFF5CC"/>
    <path d="M35.2606 48.5068C34.7998 48.4663 34.3367 48.4574 33.8747 48.48C31.7887 48.4785 30.685 48.2707 30.1856 47.3432L28.3026 43.7056C28.2187 43.5435 28.0738 43.4213 27.8998 43.366C27.7258 43.3107 27.5369 43.3268 27.3748 43.4107C27.2126 43.4947 27.0905 43.6396 27.0352 43.8136C26.9799 43.9876 26.996 44.1764 27.0799 44.3386L28.5799 47.2364C28.6701 47.4106 28.7935 47.6491 28.9613 47.9731C29.4454 48.9085 28.9687 49.9343 27.7611 51.6446C27.5919 51.8558 27.4341 52.0759 27.2885 52.304C27.1935 52.4501 27.0987 52.6038 26.9949 52.7777C26.1359 54.2106 25.7644 55.6045 26.6853 56.9417C26.698 56.9661 26.7748 57.0621 26.7967 57.0895C27.4957 57.9756 28.5378 58.9556 29.8887 59.1167C31.8673 59.3677 32.6621 58.8439 34.8018 57.7363C36.9416 56.6287 37.8265 56.2791 38.7656 54.5217C39.4017 53.332 39.2155 51.9091 38.8955 50.8267C38.8797 50.7961 38.8457 50.678 38.8361 50.652C38.2791 49.1342 36.9266 48.6328 35.2606 48.5068Z" fill="#FFF5CC"/>
    <path d="M70.3068 40.0546C70.307 40.0523 70.3072 40.05 70.3074 40.0477C70.3156 39.9921 70.3225 39.9367 70.3282 39.8814C70.4616 38.5379 69.833 37.3089 68.1679 36.8062C67.7185 36.6851 67.2612 36.5963 66.7992 36.5404C66.5343 36.5082 66.2715 36.4599 66.0125 36.3959C65.9597 36.3851 65.9122 36.3565 65.878 36.3149C65.8543 36.2861 65.8379 36.2524 65.8299 36.2164C65.8199 36.1878 65.8149 36.1576 65.8151 36.1271C65.8154 36.0879 65.8244 36.0493 65.8414 36.0141C65.9096 35.7994 66.0588 35.4949 66.1882 35.2307C66.2618 35.0804 66.3291 34.9432 66.3714 34.8429C66.5351 34.4814 66.6779 34.1107 66.799 33.7327C67.0116 33.1366 67.0152 32.486 66.8092 31.8876C66.4863 31.101 66.0847 30.6346 65.1456 30.4993C65 30.4763 64.6472 30.4531 64.2616 30.4294C64.237 30.4304 64.2125 30.4256 64.1901 30.4156C64.1676 30.4055 64.1478 30.3905 64.1321 30.3715C64.1164 30.3526 64.1053 30.3303 64.0996 30.3063C64.0939 30.2824 64.0938 30.2575 64.0994 30.2335L64.3516 27.9912C64.3552 27.9564 64.3714 27.9241 64.3971 27.9003C64.4228 27.8765 64.4562 27.863 64.4912 27.8621C64.6815 27.8591 64.8718 27.8673 65.0611 27.8867C66.3539 28.0322 67.536 28.6852 68.3473 29.7023C69.1586 30.7193 69.5326 32.0169 69.3872 33.3097C69.3452 33.6784 69.2613 34.041 69.1372 34.3906C69.1261 34.4255 69.122 34.4622 69.1251 34.4986C69.1281 34.5336 69.1377 34.5678 69.1534 34.5992L69.1536 34.5971C69.1702 34.6307 69.1934 34.6607 69.2217 34.6854C69.2414 34.7026 69.2634 34.7169 69.2869 34.728C69.2971 34.7327 69.3076 34.7367 69.3184 34.7401C70.4453 35.1438 71.4029 35.9161 72.0361 36.9319C72.4319 37.5668 72.6864 38.2736 72.789 39.0048C72.8243 39.2563 72.8416 39.5107 72.8405 39.7661C72.8397 39.9563 72.8287 40.1472 72.8073 40.3377C72.6734 41.5273 72.1419 42.6368 71.2988 43.4865C70.4557 44.3362 69.3503 44.8764 68.1619 45.0195C68.1298 45.0221 68.0985 45.0301 68.0692 45.0431C68.0652 45.0449 68.0613 45.0468 68.0574 45.0488C68.0249 45.0655 67.996 45.0885 67.9724 45.1164C67.9487 45.1443 67.9309 45.1766 67.9197 45.2115C67.9086 45.2463 67.9045 45.283 67.9076 45.3194C67.9537 45.6836 67.9586 46.0517 67.9223 46.4169C67.7768 47.7098 67.1238 48.8918 66.1067 49.7031C65.0897 50.5145 63.7921 50.8885 62.4993 50.7431C62.3071 50.72 62.1165 50.6853 61.9284 50.6393C61.8945 50.6307 61.8649 50.61 61.8451 50.5812C61.8254 50.5523 61.8168 50.5172 61.821 50.4825L62.0733 48.2402C62.0752 48.2168 62.0822 48.1942 62.0938 48.1739C62.1054 48.1535 62.1213 48.136 62.1404 48.1225C62.1594 48.1089 62.1813 48.0997 62.2043 48.0955C62.2273 48.0913 62.251 48.0922 62.2736 48.0981C62.6538 48.1705 63.0047 48.21 63.151 48.2265C64.0985 48.287 64.5934 47.9248 65.083 47.2295C65.4168 46.6919 65.5579 46.0568 65.4831 45.4284C65.449 45.0329 65.3921 44.6398 65.3128 44.2508C65.2955 44.1069 65.2455 43.8897 65.1933 43.6633C65.1379 43.4228 65.0801 43.172 65.0567 42.988C65.0479 42.95 65.0477 42.9105 65.0561 42.8725C65.0645 42.8344 65.0813 42.7987 65.1052 42.768C65.1292 42.7373 65.1597 42.7123 65.1946 42.6948C65.2294 42.6774 65.2678 42.668 65.3067 42.6673C65.5735 42.6624 65.8404 42.6737 66.1059 42.7012C66.5687 42.7494 67.0344 42.7644 67.4994 42.7461C69.2729 42.6108 70.1579 41.5216 70.2992 40.1391C70.3018 40.1122 70.3042 40.0851 70.3063 40.058L70.3068 40.0546Z" fill="#FFE167"/>
    <path d="M70.2542 41.4107C69.7176 42.817 68.4867 43.6991 66.6157 43.2992C66.1408 43.1792 65.6751 43.0254 65.2221 42.839C64.9622 42.7322 64.6962 42.6413 64.4253 42.5667C64.3858 42.5559 64.3443 42.554 64.3039 42.5612C64.2635 42.5684 64.2252 42.5846 64.1919 42.6085C64.1586 42.6324 64.131 42.6634 64.1112 42.6993C64.0914 42.7353 64.0798 42.7752 64.0774 42.8161C64.0169 43.1903 64.0124 43.857 63.96 44.1674C63.9243 44.5837 63.8646 44.9976 63.7813 45.407C63.6698 46.0637 63.3382 46.663 62.8411 47.1064C62.1398 47.6626 61.5323 47.881 60.5936 47.5378C60.4509 47.4776 60.1083 47.3333 59.746 47.147C59.7249 47.1343 59.7013 47.1263 59.6768 47.1237C59.6523 47.1211 59.6275 47.1239 59.6042 47.1319C59.5809 47.1399 59.5597 47.1528 59.5419 47.1699C59.5242 47.187 59.5104 47.2078 59.5015 47.2308L58.5792 49.4196C58.5646 49.4534 58.5628 49.4914 58.5742 49.5264C58.5855 49.5615 58.6093 49.5912 58.6409 49.61C58.8171 49.7124 58.9992 49.8041 59.1864 49.8846C60.4484 50.4164 61.8699 50.4251 63.1383 49.9087C64.4067 49.3924 65.418 48.3933 65.9497 47.1313C66.0952 46.7734 66.1998 46.4002 66.2616 46.0188C66.2694 45.9811 66.2845 45.9453 66.3061 45.9135C66.3277 45.8816 66.3553 45.8543 66.3875 45.8332C66.4196 45.812 66.4557 45.7974 66.4935 45.7902C66.5313 45.783 66.5701 45.7833 66.6078 45.7912C67.8504 46.0005 69.1272 45.7842 70.2314 45.1773C71.3356 44.5703 72.2026 43.6084 72.6919 42.4472C73.1812 41.2861 73.2641 39.9937 72.9272 38.7796C72.5904 37.5654 71.8534 36.5005 70.8358 35.7575C70.8039 35.736 70.7765 35.7084 70.7552 35.6763C70.734 35.6442 70.7193 35.6082 70.7119 35.5704C70.7046 35.5327 70.7048 35.4938 70.7125 35.4561C70.7202 35.4184 70.7353 35.3826 70.7569 35.3507C70.9863 35.0346 71.1789 34.6934 71.3311 34.3338C71.8629 33.0718 71.8715 31.6503 71.3552 30.3819C70.8388 29.1135 69.8398 28.1022 68.5778 27.5704C68.3925 27.4944 68.2028 27.4295 68.0098 27.3759C67.9742 27.3664 67.9364 27.3701 67.9034 27.3865C67.8704 27.4028 67.8444 27.4306 67.8304 27.4647L66.9081 29.6535C66.8954 29.6761 66.8881 29.7013 66.8867 29.7271C66.8853 29.753 66.8899 29.7788 66.9001 29.8026C66.9103 29.8264 66.9258 29.8476 66.9455 29.8644C66.9652 29.8812 66.9885 29.8933 67.0136 29.8997C67.3959 30.0384 67.7452 30.1669 67.8853 30.2334C68.7932 30.6496 69.0599 31.2401 69.1516 32.1304C69.1815 32.7959 68.9842 33.4517 68.5921 33.9902C68.3572 34.3358 68.1027 34.6676 67.8297 34.9839C67.6296 35.2283 67.1543 35.7004 66.946 36.0085C66.9183 36.0391 66.8977 36.0754 66.8858 36.1148C66.8738 36.1543 66.8707 36.1959 66.8768 36.2366C66.8828 36.2774 66.8978 36.3163 66.9207 36.3506C66.9436 36.3849 66.9738 36.4136 67.0091 36.4348C67.2516 36.5766 67.5025 36.7036 67.7604 36.8149C68.2102 37.0089 68.6456 37.2348 69.0632 37.4909C70.6562 38.5506 70.8845 40.0476 70.2542 41.4107Z" fill="#F8783A"/>
    <path opacity="0.3" d="M70.7112 35.5667L66.8835 36.1577C66.868 36.2123 66.8716 36.2705 66.8938 36.3227C66.916 36.3748 66.9554 36.4178 67.0055 36.4445C67.248 36.5863 67.4989 36.7132 67.7568 36.8245C68.2066 37.0186 68.6419 37.2444 69.0595 37.5005C70.6579 38.5475 70.8809 40.0572 70.2505 41.4203C69.714 42.8266 68.4831 43.7087 66.6121 43.3088C66.1372 43.1888 65.6714 43.035 65.2184 42.8486C64.9586 42.7418 64.6925 42.6509 64.4217 42.5763C64.3593 42.5584 64.2924 42.5643 64.2341 42.5929C64.1758 42.6215 64.1302 42.6707 64.1062 42.731C64.1109 42.7156 64.1172 42.7008 64.1249 42.6866L66.3753 45.8388C66.4088 45.8154 66.4468 45.7991 66.4868 45.7909C66.5269 45.7828 66.5682 45.7829 66.6082 45.7913C67.8507 46.0006 69.1276 45.7843 70.2318 45.1773C71.336 44.5704 72.203 43.6085 72.6923 42.4473C73.1816 41.2862 73.2645 39.9938 72.9276 38.7796C72.5907 37.5655 71.8538 36.5006 70.8362 35.7576C70.8038 35.735 70.7762 35.7062 70.7549 35.6729C70.7337 35.6396 70.7193 35.6024 70.7125 35.5635L70.7112 35.5667Z" fill="#C74607"/>
    <path d="M51.1037 26.4863C52.0102 24.911 51.571 23.5411 50.4556 22.6464C50.3872 22.5833 50.3171 22.5234 50.2456 22.4667C49.2213 21.6597 47.8889 21.5245 46.5721 22.5879C46.2189 22.8909 45.8879 23.2188 45.5815 23.569C45.4057 23.7697 45.2179 23.9596 45.019 24.1376C44.9804 24.1751 44.93 24.1983 44.8764 24.2031C44.8409 24.2064 44.8054 24.2015 44.7725 24.1892C44.7417 24.1814 44.7124 24.1681 44.6861 24.1499C44.6539 24.1276 44.6271 24.0985 44.6076 24.0646C44.4686 23.8873 44.301 23.5926 44.1557 23.3368C44.0729 23.1913 43.9974 23.0585 43.9384 22.9671C43.7319 22.6281 43.506 22.3014 43.262 21.9884C42.8892 21.477 42.3536 21.1076 41.7432 20.9408C40.9115 20.7645 40.2999 20.8337 39.6591 21.5334C39.5582 21.6407 39.3403 21.9191 39.1036 22.2244C39.0905 22.2453 39.0728 22.2628 39.0518 22.2757C39.0309 22.2886 39.0072 22.2965 38.9828 22.2988C38.9583 22.3011 38.9336 22.2977 38.9106 22.2889C38.8876 22.2801 38.867 22.2662 38.8503 22.2481L37.1397 20.7767C37.113 20.7542 37.0954 20.7226 37.0902 20.688C37.085 20.6534 37.0927 20.6181 37.1117 20.5887C37.2163 20.4298 37.3303 20.2772 37.4529 20.1318C38.3013 19.1455 39.5067 18.5367 40.8039 18.4392C42.1011 18.3416 43.384 18.7634 44.3702 19.6118C44.6511 19.8541 44.9035 20.1276 45.1225 20.4271C45.1451 20.4559 45.173 20.48 45.2049 20.4979C45.2357 20.5153 45.2694 20.5266 45.3044 20.5313L45.302 20.5292C45.3391 20.5344 45.3769 20.5321 45.4132 20.5226C45.4495 20.5131 45.4836 20.4966 45.5135 20.4739C46.4817 19.7701 47.6591 19.4138 48.8551 19.4628C50.0511 19.5118 51.1955 19.9631 52.1029 20.7437C53.0104 21.5242 53.6277 22.5883 53.8549 23.7635C54.0325 24.6818 53.9637 25.6258 53.6622 26.5017C53.5895 26.713 53.5032 26.9205 53.4035 27.1226C53.3876 27.1549 53.3713 27.1871 53.3546 27.2191C53.3366 27.2509 53.325 27.286 53.3205 27.3223C53.316 27.3585 53.3187 27.3954 53.3284 27.4306C53.3382 27.4658 53.3548 27.4988 53.3773 27.5276C53.3999 27.5564 53.4278 27.5805 53.4597 27.5985C53.7865 27.7655 54.0935 27.9687 54.3748 28.2045C55.361 29.0528 55.9699 30.2582 56.0674 31.5554C56.1649 32.8527 55.7431 34.1355 54.8947 35.1217C54.7674 35.2675 54.6315 35.4055 54.4876 35.5349C54.4613 35.5581 54.4276 35.5709 54.3926 35.571C54.3576 35.5711 54.3238 35.5584 54.2974 35.5353L52.5869 34.0639C52.5687 34.0492 52.5539 34.0307 52.5436 34.0097C52.5334 33.9887 52.5278 33.9657 52.5274 33.9423C52.5269 33.9189 52.5316 33.8957 52.5411 33.8743C52.5506 33.8529 52.5647 33.8339 52.5823 33.8185C52.8563 33.5452 53.0866 33.2774 53.1825 33.1659C53.7662 32.4171 53.7457 31.8041 53.447 31.0081C53.1908 30.4294 52.7455 29.9551 52.1842 29.663C51.8382 29.4685 51.4814 29.294 51.1154 29.1405C50.9867 29.0737 50.779 28.9927 50.5626 28.9083C50.3327 28.8186 50.0929 28.7251 49.9277 28.6408C49.8913 28.6267 49.8586 28.6046 49.8319 28.5763C49.8052 28.5479 49.7852 28.5139 49.7733 28.4768C49.7614 28.4397 49.7579 28.4004 49.7631 28.3618C49.7684 28.3232 49.7822 28.2862 49.8035 28.2536C49.9498 28.0304 50.1094 27.8163 50.2817 27.6124C50.5821 27.2571 50.8568 26.8808 51.1037 26.4863Z" fill="#FFE167"/>
    <path d="M51.027 23.1721C52.3301 23.9254 53.0053 25.2808 52.313 27.0645C52.119 27.5143 51.8931 27.9496 51.6371 28.3672C51.4903 28.6068 51.3583 28.855 51.2417 29.1106C51.2246 29.1479 51.2162 29.1886 51.2169 29.2296C51.2176 29.2706 51.2275 29.3109 51.2457 29.3477C51.264 29.3844 51.2903 29.4165 51.3226 29.4418C51.355 29.4671 51.3925 29.4848 51.4326 29.4937C51.7924 29.613 52.4499 29.7234 52.748 29.8244C53.1533 29.9259 53.5525 30.0506 53.9434 30.1979C54.5741 30.4125 55.113 30.8351 55.4718 31.3964C55.9094 32.1771 56.0284 32.8117 55.5403 33.6838C55.4582 33.8152 55.2613 34.1305 55.0197 34.4585C55.0038 34.4774 54.9922 34.4994 54.9858 34.5232C54.9793 34.5469 54.9781 34.5718 54.9823 34.5961C54.9865 34.6204 54.9959 34.6434 55.0099 34.6637C55.024 34.6839 55.0423 34.7008 55.0636 34.7132L57.0779 35.9718C57.109 35.9916 57.1462 35.9994 57.1826 35.9938C57.219 35.9881 57.2521 35.9694 57.2757 35.9411C57.4048 35.7835 57.5243 35.6183 57.6336 35.4463C58.3592 34.2849 58.5938 32.8828 58.2856 31.5485C57.9775 30.2141 57.152 29.0569 55.9906 28.3312C55.6603 28.1308 55.3085 27.9681 54.9418 27.8464C54.9058 27.8328 54.8729 27.8122 54.8448 27.7858C54.8168 27.7594 54.7943 27.7278 54.7785 27.6927C54.7627 27.6575 54.7541 27.6197 54.753 27.5812C54.7518 27.5427 54.7583 27.5044 54.7721 27.4684C55.1763 26.275 55.1657 24.98 54.742 23.7934C54.3184 22.6067 53.5065 21.5978 52.4379 20.9301C51.3693 20.2624 50.1066 19.9751 48.8543 20.1147C47.602 20.2543 46.4335 20.8125 45.5381 21.6991C45.5118 21.7272 45.4803 21.7498 45.4452 21.7657C45.4101 21.7816 45.3723 21.7904 45.3338 21.7916C45.2953 21.7928 45.257 21.7865 45.221 21.7729C45.185 21.7592 45.152 21.7387 45.124 21.7123C44.8484 21.4356 44.5422 21.1911 44.2113 20.9837C43.0499 20.2581 41.6478 20.0235 40.3135 20.3317C38.9792 20.6398 37.8219 21.4654 37.0963 22.6268C36.9918 22.7977 36.8975 22.9746 36.8139 23.1566C36.7988 23.1902 36.7965 23.2282 36.8074 23.2634C36.8183 23.2986 36.8416 23.3286 36.873 23.3478L38.8874 24.6064C38.9077 24.6225 38.9314 24.6337 38.9567 24.6392C38.982 24.6447 39.0082 24.6443 39.0333 24.638C39.0585 24.6317 39.0818 24.6197 39.1015 24.603C39.1213 24.5862 39.1369 24.5652 39.1472 24.5414C39.3449 24.186 39.5273 23.8615 39.6152 23.7338C40.1705 22.9036 40.7959 22.7342 41.6895 22.7852C42.3512 22.8615 42.9673 23.1606 43.4367 23.6333C43.7405 23.9201 44.0276 24.2241 44.2965 24.5439C44.506 24.7803 44.8965 25.3247 45.1676 25.5794C45.1934 25.6115 45.2259 25.6376 45.263 25.6557C45.3 25.6738 45.3406 25.6834 45.3818 25.6839C45.423 25.6844 45.4638 25.6758 45.5013 25.6587C45.5388 25.6415 45.572 25.6163 45.5985 25.5848C45.7771 25.3679 45.9423 25.1404 46.0932 24.9034C46.3563 24.4902 46.6485 24.0963 46.9677 23.7247C48.2672 22.3205 49.7815 22.333 51.027 23.1721Z" fill="#F8783A"/>
    <path opacity="0.3" d="M45.3289 21.7914L45.3039 25.6644C45.3552 25.6884 45.4133 25.694 45.4683 25.6804C45.5234 25.6668 45.5721 25.6347 45.6063 25.5895C45.7849 25.3726 45.9501 25.1451 46.101 24.9082C46.3641 24.495 46.6563 24.1011 46.9755 23.7295C48.2633 22.3179 49.7893 22.3378 51.0348 23.1768C52.3379 23.9301 53.0131 25.2856 52.3208 27.0693C52.1268 27.519 51.9009 27.9544 51.6449 28.372C51.4982 28.6115 51.3661 28.8598 51.2495 29.1153C51.2218 29.1741 51.217 29.241 51.236 29.3031C51.2549 29.3653 51.2963 29.4181 51.3521 29.4514C51.3376 29.4443 51.3239 29.4357 51.3112 29.4258L54.781 27.7053C54.7632 27.6684 54.7532 27.6284 54.7515 27.5875C54.7498 27.5467 54.7565 27.5059 54.7711 27.4677C55.1753 26.2743 55.1647 24.9793 54.7411 23.7926C54.3174 22.606 53.5056 21.5971 52.437 20.9294C51.3683 20.2617 50.1056 19.9744 48.8533 20.114C47.6011 20.2535 46.4326 20.8118 45.5372 21.6984C45.5097 21.7268 45.4769 21.7494 45.4407 21.7651C45.4044 21.7808 45.3654 21.7891 45.3259 21.7896L45.3289 21.7914Z" fill="#C74607"/>
    <path d="M68.941 57.716C74.0496 51.5452 81.6891 45.1142 89.9122 45.8632L68.294 75.4352C68.3335 75.5037 68.3605 75.5795 68.3728 75.6591C68.3992 75.8287 68.3571 76.0019 68.2558 76.1405L56.9855 91.5573C56.5803 92.1117 55.9713 92.4824 55.2927 92.5879C54.6141 92.6933 53.9214 92.5249 53.367 92.1196C52.8126 91.7143 52.4419 91.1053 52.3364 90.4267C52.231 89.7481 52.3994 89.0554 52.8047 88.501L64.0749 73.0842C64.1251 73.0155 64.1883 72.9575 64.2609 72.9133C64.3335 72.8691 64.4142 72.8396 64.4982 72.8265C64.5822 72.8135 64.6679 72.8171 64.7505 72.8372C64.8131 72.8524 64.8729 72.8768 64.9281 72.9096L64.93 72.907C65.082 72.6991 65.1451 72.4393 65.1056 72.1848C65.0661 71.9303 64.927 71.702 64.7191 71.55L61.5835 69.2578C61.3756 69.1058 61.2366 68.8774 61.1971 68.6229C61.1946 68.607 61.1925 68.5911 61.1908 68.5752C61.1658 68.3362 61.2302 68.0957 61.3727 67.9008L66.9123 60.323C67.5331 59.4738 68.2112 58.5976 68.941 57.716Z" fill="#FFE167"/>
    <path d="M93.0507 45.3905C83.15 44.5732 74.1353 53.6213 68.9676 60.8174L63.2036 68.8439C63.0455 69.0641 62.9813 69.3381 63.0252 69.6056C63.0691 69.8732 63.2175 70.1123 63.4377 70.2704L66.759 72.6555C66.9792 72.8137 67.1276 73.0528 67.1714 73.3204C67.2153 73.5879 67.1512 73.8619 66.993 74.0821L65.403 76.2963L69.001 78.8802L93.0507 45.3905Z" fill="#C8C4C0"/>
    <path d="M91.9973 46.8574L93.0507 45.3905C83.15 44.5732 74.1353 53.6213 68.9676 60.8174L63.2036 68.8438C63.0455 69.0641 62.9813 69.3381 63.0252 69.6056C63.0691 69.8731 63.2175 70.1123 63.4377 70.2704L64.268 70.8667L70.6283 62.0099C75.3527 55.431 83.1227 47.532 91.9973 46.8574Z" fill="#FAF5F0"/>
    <path d="M67.0438 74.1207L70.3651 76.5058C70.5119 76.6112 70.6108 76.7706 70.6401 76.949C70.6693 77.1273 70.6265 77.31 70.5211 77.4568L58.7944 93.7865C58.3727 94.3737 57.735 94.7694 57.0215 94.8864C56.3081 95.0035 55.5774 94.8323 54.9901 94.4106C54.4029 93.9889 54.0072 93.3512 53.8902 92.6378C53.7731 91.9243 53.9443 91.1936 54.366 90.6064L66.0927 74.2767C66.1449 74.204 66.2109 74.1423 66.287 74.0951C66.363 74.0479 66.4476 74.0162 66.5359 74.0017C66.6243 73.9872 66.7146 73.9903 66.8017 74.0107C66.8888 74.0311 66.9711 74.0685 67.0438 74.1207Z" fill="#5C5AB2"/>
    <path d="M65.8793 79.3098C66.2921 79.6061 66.8669 79.5118 67.1633 79.0991C67.4597 78.6864 67.3654 78.1116 66.9526 77.8152C66.5399 77.5188 65.9651 77.6131 65.6687 78.0258C65.3723 78.4385 65.4666 79.0134 65.8793 79.3098Z" fill="#FFF5CC"/>
    <path d="M61.7083 84.9897C62.121 85.2861 62.6958 85.1918 62.9922 84.7791C63.2886 84.3663 63.1943 83.7915 62.7816 83.4951C62.3689 83.1987 61.794 83.293 61.4976 83.7058C61.2013 84.1185 61.2956 84.6933 61.7083 84.9897Z" fill="#FFF5CC"/>
    <path d="M58.88 90.5054C58.5837 90.9181 58.0088 91.0124 57.5961 90.716C57.1834 90.4196 57.0891 89.8448 57.3855 89.4321C57.6818 89.0193 58.2567 88.925 58.6694 89.2214C59.0821 89.5178 59.1764 90.0926 58.88 90.5054Z" fill="#FFF5CC"/>
  </g>
  <defs>
    <clipPath id="clip0">
      <rect width="106" height="96" fill="white"/>
    </clipPath>
  </defs>
</svg>
